<svg xmlns="http://www.w3.org/2000/svg" xmlns:xlink="http://www.w3.org/1999/xlink" viewBox="0 0 477.64 427"><defs><style>.cls-1{isolation:isolate;}.cls-2{fill:url(#linear-gradient);}.cls-12,.cls-3{fill:#535353;}.cls-3,.cls-59{opacity:0.2;}.cls-3,.cls-40,.cls-44,.cls-46,.cls-47,.cls-59,.cls-60{mix-blend-mode:multiply;}.cls-4{fill:url(#linear-gradient-2);}.cls-5{fill:url(#linear-gradient-3);}.cls-6{fill:#999;}.cls-7{fill:#b3b3b3;}.cls-8{fill:#4d4d4d;}.cls-9{fill:#7b7b7b;}.cls-10{fill:#ededed;}.cls-11{fill:#929292;}.cls-13{fill:#b5b5b5;}.cls-14,.cls-24,.cls-54{fill:#fff;}.cls-15{fill:#878787;}.cls-16{fill:#1c1c1c;}.cls-17{fill:#ccc;}.cls-18{fill:#b2b2b2;}.cls-19,.cls-44,.cls-46,.cls-47,.cls-54,.cls-55{opacity:0.5;}.cls-20{fill:#f2f2f2;}.cls-21{fill:#919191;}.cls-22{fill:#333;}.cls-23,.cls-59{fill:#1a1a1a;}.cls-24,.cls-40{opacity:0.75;}.cls-25{fill:#444;}.cls-26{fill:#707070;}.cls-27{fill:#5e5e5e;}.cls-28{fill:#777;}.cls-29{fill:#bebebe;}.cls-30{fill:#9f9f9f;}.cls-31{fill:#868686;}.cls-32{fill:#3d3d3d;}.cls-33{fill:#acacac;}.cls-34,.cls-40{fill:#ddd;}.cls-35{fill:#dbdbdb;}.cls-36{fill:#d8d8d8;}.cls-37{mix-blend-mode:overlay;}.cls-38{fill:url(#linear-gradient-5);}.cls-39{fill:url(#linear-gradient-6);}.cls-41,.cls-60{fill:#ffd1a6;}.cls-42{fill:#fc265e;}.cls-43{fill:#eda96b;}.cls-44,.cls-48{fill:#ffbb7d;}.cls-45,.cls-46{fill:#444e94;}.cls-47{fill:#b0143d;}.cls-49,.cls-53{fill:#29abe2;}.cls-50{fill:#2ec1ff;}.cls-51,.cls-55{fill:#e6e6e6;}.cls-52{fill:#ff1d58;}.cls-52,.cls-53{opacity:0.3;}.cls-56{fill:gray;}.cls-57{fill:#1d1d1b;}.cls-58{fill:#2b325e;}.cls-61{fill:#afd9e0;}.cls-62{fill:#7ab6bc;}</style><linearGradient id="linear-gradient" x1="226.45" y1="427" x2="226.45" y2="245.78" gradientUnits="userSpaceOnUse"><stop offset="0" stop-color="#fff"/><stop offset="1" stop-color="#cacaca"/></linearGradient><linearGradient id="linear-gradient-2" x1="72.04" y1="142.22" x2="258.31" y2="282.46" xlink:href="#linear-gradient"/><linearGradient id="linear-gradient-3" x1="203.29" y1="280.12" x2="412.92" y2="140.37" gradientUnits="userSpaceOnUse"><stop offset="0" stop-color="#cacaca"/><stop offset="1" stop-color="#fff"/></linearGradient><linearGradient id="linear-gradient-5" x1="74.06" y1="133.99" x2="246.45" y2="303.75" xlink:href="#linear-gradient"/><linearGradient id="linear-gradient-6" x1="249.73" y1="314.22" x2="408.65" y2="109.99" xlink:href="#linear-gradient-3"/></defs><g class="cls-1"><g id="Layer_2" data-name="Layer 2"><g id="Layer_2-2" data-name="Layer 2"><path class="cls-2" d="M71.85,367.49l52.7-30.43L74.19,308,21.48,338.41Zm105.41-60.85L230,276.21,179.6,247.13l-52.71,30.43ZM69.51,427l52.7-30.43L71.85,367.49,19.14,397.92Zm105.41-60.86,52.7-30.43-50.36-29.07-52.71,30.42Zm105.41-60.86L333,274.86l-50.36-29.08L230,276.21ZM172.58,425.65l52.7-30.43-50.36-29.08-52.71,30.43ZM278,364.79l52.7-30.43-50.36-29.08-52.71,30.43Zm-2.34,59.51,52.7-30.43L278,364.79l-52.71,30.43Zm105.41-60.86L433.76,333,383.4,303.93l-52.71,30.43ZM378.72,423l52.7-30.43-50.36-29.08-52.71,30.43Z"/><path class="cls-3" d="M65.77,359.45l57.33,33.19a13.62,13.62,0,0,0,12.31,0L186.67,363c3.39-2,3.39-5.14,0-7.1l-55.25-32-2.08-1.2a13.56,13.56,0,0,0-12.31,0L74.49,347.31l-8.72,5C62.36,354.31,62.36,357.49,65.77,359.45Z"/><polygon class="cls-4" points="178.34 0 0 84.5 0 350.81 232.24 216.69 232.24 0 178.34 0"/><polygon class="cls-5" points="290.57 0 232.24 0 232.24 216.69 477.64 358.04 477.64 81.88 290.57 0"/><polygon class="cls-3" points="224.09 291.82 277.97 260.51 449.83 359.73 395.95 391.04 224.09 291.82"/><path class="cls-6" d="M229.45,243.1v47.31a3,3,0,0,0,1.79,2.5,9.62,9.62,0,0,0,8.65,0,3,3,0,0,0,1.8-2.5V243.1Z"/><path class="cls-6" d="M389.67,301.21v81.91a3,3,0,0,0,1.8,2.5,9.55,9.55,0,0,0,8.65,0,3,3,0,0,0,1.79-2.5V301.21Z"/><path class="cls-6" d="M431.91,297.14V358.6a3.06,3.06,0,0,0,1.79,2.5,9.57,9.57,0,0,0,8.66,0,3.06,3.06,0,0,0,1.79-2.5V297.14Z"/><polygon class="cls-7" points="279.66 205.97 227.32 236.39 227.31 248.16 394.26 344.55 446.6 314.14 446.61 302.36 279.66 205.97"/><g class="cls-1"><polygon points="449.83 299.92 449.82 304.44 395.94 335.75 395.95 331.23 449.83 299.92"/><polygon points="395.95 331.23 395.94 335.75 224.08 236.52 224.09 232.01 395.95 331.23"/><polygon class="cls-8" points="449.83 299.92 395.95 331.23 224.09 232.01 277.97 200.69 449.83 299.92"/></g><path class="cls-9" d="M127,230.83v94a2,2,0,0,1-1.19,1.66,6.38,6.38,0,0,1-5.77,0,2,2,0,0,1-1.19-1.66v-94Z"/><path class="cls-10" d="M120,229.17c-1.59.92-1.59,2.41,0,3.33a6.38,6.38,0,0,0,5.77,0c1.59-.92,1.59-2.41,0-3.33A6.38,6.38,0,0,0,120,229.17Z"/><path class="cls-11" d="M133.62,295.81v94a2,2,0,0,1-1.19,1.67,6.36,6.36,0,0,1-5.76,0,2,2,0,0,1-1.19-1.67v-94Z"/><path class="cls-10" d="M126.67,294.15c-1.59.91-1.59,2.4,0,3.32a6.36,6.36,0,0,0,5.76,0c1.59-.92,1.59-2.41,0-3.32A6.36,6.36,0,0,0,126.67,294.15Z"/><path class="cls-11" d="M74.47,261.34v94A2,2,0,0,1,73.28,357a6.36,6.36,0,0,1-5.76,0,2,2,0,0,1-1.2-1.67v-94Z"/><path class="cls-10" d="M67.52,259.68c-1.59.91-1.59,2.4,0,3.32a6.36,6.36,0,0,0,5.76,0c1.59-.92,1.59-2.41,0-3.32A6.36,6.36,0,0,0,67.52,259.68Z"/><path class="cls-11" d="M186.13,265.3v94a2,2,0,0,1-1.19,1.66,6.36,6.36,0,0,1-5.76,0,2,2,0,0,1-1.2-1.66v-94Z"/><path class="cls-10" d="M179.18,263.64c-1.6.92-1.6,2.41,0,3.33a6.36,6.36,0,0,0,5.76,0c1.59-.92,1.59-2.41,0-3.33A6.36,6.36,0,0,0,179.18,263.64Z"/><path class="cls-12" d="M65.63,262.66l.14-.1L117,233a13.62,13.62,0,0,1,12.31,0l55.56,32.15,4.33.65v3.93c0,1.29-.85,2.57-2.55,3.56l-51.26,29.59a13.62,13.62,0,0,1-12.31,0L65.77,269.67c-1.7-1-2.55-2.27-2.55-3.56v-3.93Z"/><path class="cls-13" d="M65.77,265.73l57.33,33.19a13.62,13.62,0,0,0,12.31,0l51.26-29.6c3.39-2,3.39-5.14,0-7.1l-55.25-32L129.34,229A13.62,13.62,0,0,0,117,229L74.49,253.59l-8.72,5C62.36,260.59,62.36,263.77,65.77,265.73Z"/><polygon class="cls-14" points="161.8 267 135.95 252.08 99.43 273.17 125.28 288.09 161.8 267"/><polygon class="cls-15" points="114.03 279.4 114.46 279.65 123.51 274.43 123.08 274.18 114.03 279.4"/><path class="cls-16" d="M121.11,276.83l9.55,5.51-5.49,3.17L115.62,280Zm8.69,5.51-8.69-5L116.48,280l8.69,5Z"/><polygon class="cls-17" points="109.22 269.93 118.77 275.44 113.28 278.61 103.73 273.09 109.22 269.93"/><path class="cls-16" d="M128.27,272.92l9.35,5.4-1.67,1-9.35-5.4Zm8.5,5.4-8.5-4.9-.82.47,8.5,4.9Z"/><polygon class="cls-15" points="112.52 268.33 133.51 280.45 133.94 280.2 112.94 268.08 112.52 268.33"/><polygon class="cls-15" points="121.92 262.9 142.92 275.02 143.34 274.77 122.35 262.65 121.92 262.9"/><polygon class="cls-15" points="130.87 257.73 151.86 269.85 152.29 269.61 131.3 257.49 130.87 257.73"/><polygon class="cls-16" points="121.97 276.58 131.09 281.85 131.51 281.6 122.39 276.34 121.97 276.58"/><polygon class="cls-16" points="114.7 267.07 125.28 273.17 125.7 272.92 115.13 266.82 114.7 267.07"/><polygon class="cls-16" points="115.99 266.32 126.56 272.43 126.99 272.18 116.42 266.08 115.99 266.32"/><polygon class="cls-16" points="117.27 265.58 138.26 277.7 138.69 277.46 117.7 265.34 117.27 265.58"/><polygon class="cls-16" points="118.55 264.84 139.54 276.96 139.97 276.72 118.98 264.6 118.55 264.84"/><polygon class="cls-16" points="119.83 264.1 140.83 276.22 141.26 275.98 120.26 263.86 119.83 264.1"/><polygon class="cls-16" points="135.92 268.75 144.84 273.9 145.27 273.66 136.35 268.51 135.92 268.75"/><polygon class="cls-16" points="137.21 268.01 146.13 273.16 146.56 272.92 137.63 267.76 137.21 268.01"/><polygon class="cls-16" points="138.49 267.27 147.41 272.42 147.84 272.18 138.92 267.02 138.49 267.27"/><polygon class="cls-16" points="144.66 263.71 153.58 268.86 154 268.62 145.08 263.46 144.66 263.71"/><polygon class="cls-16" points="145.94 262.97 154.86 268.12 155.29 267.88 146.37 262.72 145.94 262.97"/><polygon class="cls-16" points="147.22 262.23 156.14 267.38 156.57 267.13 147.65 261.98 147.22 262.23"/><polygon class="cls-16" points="127.7 259.56 148.69 271.68 149.12 271.44 128.13 259.31 127.7 259.56"/><polygon class="cls-16" points="128.98 258.82 149.97 270.94 150.4 270.69 129.41 258.57 128.98 258.82"/><polygon class="cls-16" points="122.96 276.01 131.1 280.7 131.53 280.46 123.39 275.76 122.96 276.01"/><polygon class="cls-16" points="110.98 270.24 119.35 275.07 119.78 274.82 111.41 269.99 110.98 270.24"/><polygon class="cls-16" points="111.98 269.66 120.35 274.5 120.78 274.25 112.41 269.42 111.98 269.66"/><path class="cls-16" d="M126.63,259.93l10.93,6.31-3,1.73-10.92-6.31Zm10.07,6.31-10.07-5.81-2.14,1.23,10.07,5.81Z"/><path class="cls-16" d="M135.36,254.89l5.68,3.28-3,1.73-5.68-3.28Zm4.82,3.28-4.82-2.78-2.13,1.23,4.82,2.78Z"/><path class="cls-16" d="M140.61,257.92l5.68,3.28-3,1.73-5.67-3.28Zm4.82,3.28-4.82-2.78-2.14,1.23,4.82,2.78Z"/><polygon class="cls-18" points="125.92 261.62 134.28 266.45 134.93 266.08 126.56 261.25 125.92 261.62"/><polygon class="cls-18" points="139.79 259.55 143.51 261.69 144.15 261.32 140.44 259.18 139.79 259.55"/><polygon class="cls-18" points="134.49 256.48 138.22 258.64 138.87 258.27 135.13 256.11 134.49 256.48"/><polygon class="cls-18" points="118.2 280.01 124.98 283.93 125.62 283.56 118.84 279.64 118.2 280.01"/><polygon class="cls-18" points="119.59 279.21 126.2 283.02 126.84 282.65 120.23 278.84 119.59 279.21"/><polygon class="cls-18" points="127.97 274.08 135.78 278.6 136.43 278.23 128.61 273.71 127.97 274.08"/><path class="cls-17" d="M109.35,236.21a.8.8,0,0,0-.78,0l-5.36,3.12a1.31,1.31,0,0,0-.32.26,1.25,1.25,0,0,0-.26.59.16.16,0,0,1-.1.05,1.08,1.08,0,0,0-1,.27l-2.38,2a.53.53,0,0,0-.11.67.55.55,0,0,0,.62.2l2.89-1.08a1.68,1.68,0,0,0,.25-.1,1.07,1.07,0,0,0,.5-.65c.06-.08.11-.05.17,0a1.15,1.15,0,0,0,.89-.07l5-2.93a2.7,2.7,0,0,0,.54-.34C110.43,237.62,110,236.55,109.35,236.21Z"/><path class="cls-14" d="M99.45,242.86s2.4-2,2.4-2a.87.87,0,0,1,.61-.26.78.78,0,0,1,.22,0,.37.37,0,0,0,.31-.12,1.43,1.43,0,0,1,.26-.58,1.18,1.18,0,0,1,.27-.22l5.36-3.12a.54.54,0,0,1,.27-.07.79.79,0,0,1,.32.08l.16.11a1.1,1.1,0,0,0-.37-.31.62.62,0,0,0-.31-.08.52.52,0,0,0-.27.07l-5.36,3.11a.89.89,0,0,0-.27.23.92.92,0,0,0-.22.48c-.1.17-.19.21-.28.22l-.29,0a.88.88,0,0,0-.61.25l-2.38,2a.32.32,0,0,0-.07.41.32.32,0,0,0,.17.13A.32.32,0,0,1,99.45,242.86Z"/><g class="cls-19"><path class="cls-14" d="M104.3,239.25c0-.48.33-.68.74-.45a1.65,1.65,0,0,1,.76,1.28c0,.48-.33.68-.74.45A1.65,1.65,0,0,1,104.3,239.25Z"/></g><g class="cls-19"><path class="cls-14" d="M109,236.88c0-.3.2-.42.45-.28a1,1,0,0,1,.47.79c0,.29-.2.42-.45.28A1,1,0,0,1,109,236.88Z"/></g><polygon class="cls-17" points="130.68 239.38 128.59 240.58 118.15 234.55 120.23 233.35 130.68 239.38"/><polygon class="cls-15" points="118.15 234.55 118.15 236 120.23 234.8 120.23 233.35 118.15 234.55"/><path class="cls-20" d="M119.43,234.07l3.07,1.14a1.16,1.16,0,0,1,.26.14,1.14,1.14,0,0,1,.37.51c0,.1.09.13.13.11a1.25,1.25,0,0,1,1,.1l5.36,3.12.08.05a1.06,1.06,0,0,1,.16,1.3l-.08.13a1.57,1.57,0,0,1-.24.32.92.92,0,0,1-1.11.25l-5.37-3.12a1.19,1.19,0,0,1-.57-.81c0-.06-.06-.08-.11-.09a1,1,0,0,1-.92-.19l-.1-.08L119,235A.51.51,0,0,1,119.43,234.07Z"/><path class="cls-14" d="M129.36,240.78l0-.09a.9.9,0,0,0-.08-1.09l-5.42-3.15a1,1,0,0,0-.51-.14.85.85,0,0,0-.31.06H123a.31.31,0,0,1-.25-.13,1.06,1.06,0,0,0-.35-.53l-.18-.11-3-1.12c-.11-.12,0-.23.13-.23l3.12,1.13a1.3,1.3,0,0,1,.21.12.84.84,0,0,1,.29.41c.12.21.21.26.31.26h.09a1,1,0,0,1,.33-.06,1.09,1.09,0,0,1,.51.14l5.36,3.11a.87.87,0,0,1,.16,1.08.75.75,0,0,1-.07.12,1.69,1.69,0,0,1-.22.29.84.84,0,0,1-.24.18A1.57,1.57,0,0,0,129.36,240.78Z"/><path class="cls-14" d="M129.88,240.12c0-.33-.23-.47-.51-.31a1.15,1.15,0,0,0-.52.88c0,.33.22.47.51.31A1.15,1.15,0,0,0,129.88,240.12Z"/><g class="cls-19"><path class="cls-14" d="M125.46,237.24c0-.48-.32-.68-.74-.45a1.62,1.62,0,0,0-.75,1.28c0,.48.32.68.73.45A1.65,1.65,0,0,0,125.46,237.24Z"/></g><polygon class="cls-7" points="128.59 240.58 128.59 242.03 118.15 236 118.15 234.55 128.59 240.58"/><polygon class="cls-15" points="128.59 240.58 128.59 242.03 130.68 240.83 130.68 239.38 128.59 240.58"/><polygon class="cls-17" points="128.59 240.58 126.51 241.78 116.06 235.75 118.15 234.55 128.59 240.58"/><polygon class="cls-15" points="116.06 235.75 116.06 237.21 118.15 236 118.15 234.55 116.06 235.75"/><path class="cls-20" d="M117.35,235.28l3.07,1.13a1,1,0,0,1,.26.15,1,1,0,0,1,.36.5c0,.1.09.13.14.12a1.22,1.22,0,0,1,1,.09l5.37,3.12.07.05a1.06,1.06,0,0,1,.16,1.3.69.69,0,0,1-.07.13,2,2,0,0,1-.24.32.92.92,0,0,1-1.12.25L121,239.33a1.23,1.23,0,0,1-.58-.81.1.1,0,0,0-.1-.09,1.09,1.09,0,0,1-.93-.2.36.36,0,0,1-.09-.08l-2.38-2A.51.51,0,0,1,117.35,235.28Z"/><path class="cls-14" d="M127.27,242a.28.28,0,0,0,0-.09c.19-.38.22-.87-.07-1.08l-5.42-3.16a1.07,1.07,0,0,0-.51-.13.89.89,0,0,0-.32,0l-.1,0a.33.33,0,0,1-.25-.13,1.12,1.12,0,0,0-.35-.54,1.18,1.18,0,0,0-.19-.11l-3-1.12c-.12-.12,0-.22.13-.22l3.12,1.13a.76.76,0,0,1,.2.12.86.86,0,0,1,.3.41c.12.21.21.25.3.25h.1a1,1,0,0,1,.32-.06,1,1,0,0,1,.51.14l5.36,3.11a.85.85,0,0,1,.16,1.08l-.06.13a1.6,1.6,0,0,1-.22.28,1.33,1.33,0,0,1-.24.19A1.24,1.24,0,0,0,127.27,242Z"/><path class="cls-14" d="M127.79,241.32c0-.32-.22-.46-.5-.3a1.11,1.11,0,0,0-.52.87c0,.33.22.47.5.31A1.1,1.1,0,0,0,127.79,241.32Z"/><g class="cls-19"><path class="cls-14" d="M123.37,238.44c0-.48-.32-.68-.73-.45a1.65,1.65,0,0,0-.76,1.28c0,.48.32.68.74.45A1.62,1.62,0,0,0,123.37,238.44Z"/></g><polygon class="cls-7" points="126.51 241.78 126.51 243.24 116.06 237.21 116.06 235.75 126.51 241.78"/><polygon class="cls-15" points="126.51 241.78 126.51 243.24 128.59 242.03 128.59 240.58 126.51 241.78"/><polygon class="cls-17" points="126.51 241.78 124.42 242.99 113.98 236.96 116.06 235.75 126.51 241.78"/><polygon class="cls-15" points="113.98 236.96 113.98 238.41 116.06 237.21 116.06 235.75 113.98 236.96"/><path class="cls-20" d="M115.26,236.48l3.07,1.13a1.12,1.12,0,0,1,.26.15,1.17,1.17,0,0,1,.37.5c.05.11.09.14.14.12a1.19,1.19,0,0,1,1,.1l5.36,3.11.08,0a1.06,1.06,0,0,1,.16,1.3.59.59,0,0,0-.07.14,1.36,1.36,0,0,1-.25.31.91.91,0,0,1-1.11.26l-5.36-3.12a1.2,1.2,0,0,1-.58-.81.11.11,0,0,0-.11-.09,1.07,1.07,0,0,1-.92-.19l-.09-.08-2.38-2A.51.51,0,0,1,115.26,236.48Z"/><path class="cls-14" d="M125.19,243.19a.93.93,0,0,0,0-.1.88.88,0,0,0-.08-1.08l-5.42-3.15a1,1,0,0,0-.51-.14,1.12,1.12,0,0,0-.31.05.2.2,0,0,1-.1,0,.35.35,0,0,1-.26-.13,1,1,0,0,0-.35-.53A.67.67,0,0,0,118,238l-3-1.13c-.11-.11,0-.22.13-.22l3.12,1.13a1.3,1.3,0,0,1,.21.12.93.93,0,0,1,.3.41c.11.21.21.26.3.26l.09,0a1,1,0,0,1,.33,0,1.07,1.07,0,0,1,.51.13l5.36,3.12a.86.86,0,0,1,.16,1.08l-.07.12a1.24,1.24,0,0,1-.22.28,1,1,0,0,1-.23.19A2.35,2.35,0,0,0,125.19,243.19Z"/><path class="cls-14" d="M125.71,242.53c0-.33-.22-.47-.51-.31a1.15,1.15,0,0,0-.52.88c0,.32.23.46.51.31A1.17,1.17,0,0,0,125.71,242.53Z"/><g class="cls-19"><path class="cls-14" d="M121.29,239.64c0-.47-.32-.68-.74-.45a1.64,1.64,0,0,0-.75,1.29c0,.47.32.68.73.45A1.65,1.65,0,0,0,121.29,239.64Z"/></g><polygon class="cls-7" points="124.42 242.99 124.42 244.44 113.98 238.41 113.98 236.96 124.42 242.99"/><polygon class="cls-15" points="124.42 242.99 124.42 244.44 126.51 243.24 126.51 241.78 124.42 242.99"/><polygon class="cls-17" points="124.42 242.99 122.34 244.19 111.89 238.16 113.98 236.96 124.42 242.99"/><polygon class="cls-15" points="111.89 238.16 111.89 239.62 113.98 238.41 113.98 236.96 111.89 238.16"/><path class="cls-20" d="M113.18,237.68l3.07,1.14a1.45,1.45,0,0,1,.26.14,1,1,0,0,1,.36.51c0,.1.1.13.14.11a1.22,1.22,0,0,1,1,.1l5.37,3.12.07,0a1,1,0,0,1,.16,1.3.69.69,0,0,1-.07.13,2,2,0,0,1-.24.32.92.92,0,0,1-1.11.25l-5.37-3.12a1.21,1.21,0,0,1-.58-.81.12.12,0,0,0-.1-.09,1.06,1.06,0,0,1-.93-.19l-.09-.08-2.37-2A.51.51,0,0,1,113.18,237.68Z"/><path class="cls-14" d="M123.1,244.39l.06-.09a.9.9,0,0,0-.08-1.09l-5.42-3.15a1.09,1.09,0,0,0-.51-.14.91.91,0,0,0-.32.06l-.1,0a.33.33,0,0,1-.25-.14,1.13,1.13,0,0,0-.35-.53,1.18,1.18,0,0,0-.19-.11l-3-1.12c-.12-.12,0-.23.13-.23l3.12,1.13.2.12a.86.86,0,0,1,.3.41c.12.21.21.26.31.26h.09a1,1,0,0,1,.32-.06,1,1,0,0,1,.51.14l5.36,3.11a.85.85,0,0,1,.16,1.08l-.06.12a1.38,1.38,0,0,1-.22.29,1.25,1.25,0,0,1-.24.18A.92.92,0,0,0,123.1,244.39Z"/><path class="cls-14" d="M123.62,243.73c0-.33-.22-.46-.5-.31a1.12,1.12,0,0,0-.52.88c0,.33.22.47.5.31A1.1,1.1,0,0,0,123.62,243.73Z"/><g class="cls-19"><path class="cls-14" d="M119.21,240.85c0-.48-.33-.68-.74-.45a1.65,1.65,0,0,0-.76,1.28c0,.48.33.68.74.45A1.65,1.65,0,0,0,119.21,240.85Z"/></g><polygon class="cls-7" points="122.34 244.19 122.34 245.64 111.89 239.62 111.89 238.16 122.34 244.19"/><polygon class="cls-15" points="122.34 244.19 122.34 245.64 124.42 244.44 124.42 242.99 122.34 244.19"/><polygon class="cls-17" points="122.34 244.19 120.25 245.4 109.81 239.37 111.89 238.16 122.34 244.19"/><polygon class="cls-15" points="109.81 239.37 109.81 240.82 111.89 239.62 111.89 238.16 109.81 239.37"/><path class="cls-20" d="M111.1,238.89l3.07,1.13a.78.78,0,0,1,.25.15,1,1,0,0,1,.37.5c0,.1.09.13.14.12a1.22,1.22,0,0,1,1,.09L121.3,244l.07.05a1.06,1.06,0,0,1,.16,1.3l-.07.13a1.65,1.65,0,0,1-.25.32.92.92,0,0,1-1.11.26l-5.36-3.12a1.2,1.2,0,0,1-.58-.81.11.11,0,0,0-.11-.09,1.08,1.08,0,0,1-.92-.2.36.36,0,0,1-.09-.08l-2.38-2A.51.51,0,0,1,111.1,238.89Z"/><path class="cls-14" d="M121,245.59a.9.9,0,0,0,0-.09c.19-.38.21-.87-.08-1.08l-5.42-3.16a1,1,0,0,0-.5-.13.86.86,0,0,0-.32.05l-.1,0a.35.35,0,0,1-.26-.13,1,1,0,0,0-.34-.54,1.18,1.18,0,0,0-.19-.11l-3-1.12c-.11-.12,0-.22.13-.22l3.12,1.13a1.3,1.3,0,0,1,.21.12.93.93,0,0,1,.3.41c.12.21.21.25.3.25H115a1,1,0,0,1,.33-.06,1.09,1.09,0,0,1,.51.14l5.36,3.11a.85.85,0,0,1,.16,1.08l-.07.13a1.21,1.21,0,0,1-.21.28,1.33,1.33,0,0,1-.24.19A1.24,1.24,0,0,0,121,245.59Z"/><path class="cls-14" d="M121.54,244.93c0-.32-.22-.46-.51-.3a1.1,1.1,0,0,0-.51.87c0,.33.22.47.5.31A1.15,1.15,0,0,0,121.54,244.93Z"/><g class="cls-19"><path class="cls-14" d="M117.12,242.05c0-.48-.32-.68-.73-.45a1.62,1.62,0,0,0-.76,1.28c0,.48.32.68.73.45A1.6,1.6,0,0,0,117.12,242.05Z"/></g><polygon class="cls-7" points="120.25 245.4 120.25 246.85 109.81 240.82 109.81 239.37 120.25 245.4"/><polygon class="cls-15" points="120.25 245.4 120.25 246.85 122.34 245.64 122.34 244.19 120.25 245.4"/><polygon class="cls-17" points="120.25 245.4 118.17 246.6 107.73 240.57 109.81 239.37 120.25 245.4"/><polygon class="cls-15" points="107.73 240.57 107.73 242.02 109.81 240.82 109.81 239.37 107.73 240.57"/><path class="cls-20" d="M109,240.09l3.07,1.13.26.15a1.07,1.07,0,0,1,.36.5c0,.11.1.14.14.12a1.21,1.21,0,0,1,1,.1l5.36,3.11.07.05a1,1,0,0,1,.16,1.3l-.07.14a1.3,1.3,0,0,1-.24.31.91.91,0,0,1-1.11.26l-5.37-3.12a1.23,1.23,0,0,1-.58-.81.12.12,0,0,0-.1-.09,1.06,1.06,0,0,1-.92-.19L111,243l-2.37-2A.51.51,0,0,1,109,240.09Z"/><path class="cls-14" d="M118.94,246.8l0-.1a.88.88,0,0,0-.08-1.08l-5.42-3.15a1.06,1.06,0,0,0-.51-.14,1.12,1.12,0,0,0-.31,0,.23.23,0,0,1-.11,0,.34.34,0,0,1-.25-.13,1,1,0,0,0-.35-.53.72.72,0,0,0-.19-.11l-3-1.13c-.11-.11,0-.22.13-.22l3.12,1.13a1.3,1.3,0,0,1,.21.12.84.84,0,0,1,.29.41c.12.21.21.26.31.26l.09,0a1,1,0,0,1,.33-.05,1,1,0,0,1,.5.13l5.36,3.12a.84.84,0,0,1,.16,1.08c0,.07-.05.09-.06.12a1.6,1.6,0,0,1-.22.28,1.33,1.33,0,0,1-.24.19A1.57,1.57,0,0,0,118.94,246.8Z"/><path class="cls-14" d="M119.45,246.14c0-.33-.22-.47-.5-.31a1.15,1.15,0,0,0-.52.88c0,.33.22.46.51.31A1.11,1.11,0,0,0,119.45,246.14Z"/><g class="cls-19"><path class="cls-14" d="M115,243.25c0-.47-.33-.68-.74-.45a1.67,1.67,0,0,0-.76,1.29c0,.47.33.68.74.45A1.67,1.67,0,0,0,115,243.25Z"/></g><polygon class="cls-7" points="118.17 246.6 118.17 248.05 107.73 242.02 107.73 240.57 118.17 246.6"/><polygon class="cls-15" points="118.17 246.6 118.17 248.05 120.25 246.85 120.25 245.4 118.17 246.6"/><polygon class="cls-17" points="118.17 246.6 116.08 247.8 105.64 241.77 107.73 240.57 118.17 246.6"/><polygon class="cls-15" points="105.64 241.77 105.64 243.22 107.73 242.02 107.73 240.57 105.64 241.77"/><path class="cls-20" d="M106.93,241.29l3.07,1.14a1,1,0,0,1,.25.14,1,1,0,0,1,.37.51c0,.1.09.13.14.11a1.22,1.22,0,0,1,1,.1l5.37,3.12.07.05a1.06,1.06,0,0,1,.16,1.3l-.07.13a2,2,0,0,1-.24.32.94.94,0,0,1-1.12.25l-5.36-3.12a1.17,1.17,0,0,1-.58-.81c0-.06-.06-.08-.11-.09a1,1,0,0,1-.92-.19l-.09-.08-2.38-2A.52.52,0,0,1,106.93,241.29Z"/><path class="cls-14" d="M116.85,248l.05-.09c.19-.39.22-.87-.08-1.09l-5.42-3.15a1,1,0,0,0-.5-.14.87.87,0,0,0-.32.06l-.1,0a.3.3,0,0,1-.25-.14,1.13,1.13,0,0,0-.35-.53,1.18,1.18,0,0,0-.19-.11l-3-1.12c-.11-.12,0-.23.13-.23l3.12,1.13a1,1,0,0,1,.21.13.83.83,0,0,1,.3.41c.12.2.21.25.3.25h.1a1,1,0,0,1,.32-.06,1.06,1.06,0,0,1,.51.14l5.36,3.11a.85.85,0,0,1,.16,1.08l-.07.13a1.21,1.21,0,0,1-.21.28,1.25,1.25,0,0,1-.24.18A1.18,1.18,0,0,0,116.85,248Z"/><path class="cls-14" d="M117.37,247.34c0-.33-.22-.46-.5-.31a1.1,1.1,0,0,0-.52.88c0,.33.22.47.5.31A1.12,1.12,0,0,0,117.37,247.34Z"/><g class="cls-19"><path class="cls-14" d="M113,244.46c0-.48-.32-.68-.73-.45a1.6,1.6,0,0,0-.76,1.28c0,.48.32.68.74.45A1.62,1.62,0,0,0,113,244.46Z"/></g><polygon class="cls-7" points="116.08 247.8 116.08 249.25 105.64 243.22 105.64 241.77 116.08 247.8"/><polygon class="cls-15" points="116.08 247.8 116.08 249.25 118.17 248.05 118.17 246.6 116.08 247.8"/><polygon class="cls-17" points="116.08 247.8 114 249 103.56 242.98 105.64 241.77 116.08 247.8"/><polygon class="cls-14" points="116.07 249.27 113.99 250.47 103.55 244.44 105.63 243.24 116.07 249.27"/><polygon class="cls-15" points="103.56 242.98 103.56 244.43 105.64 243.22 105.64 241.77 103.56 242.98"/><polygon class="cls-7" points="114 249 114 250.46 103.56 244.43 103.56 242.98 114 249"/><polygon class="cls-15" points="114 249 114 250.46 116.08 249.25 116.08 247.8 114 249"/><polygon class="cls-8" points="135.95 242.26 119 252.05 119 253.52 135.95 243.74 135.95 242.26"/><polygon class="cls-17" points="119 252.05 119 253.52 108.39 247.4 108.39 245.92 119 252.05"/><polygon class="cls-8" points="135.95 242.26 135.95 243.74 125.34 237.61 125.34 236.14 135.95 242.26"/><polygon class="cls-14" points="135.95 242.26 119 252.05 108.39 245.92 125.34 236.14 135.95 242.26"/><polygon class="cls-14" points="132.34 242.26 125.33 238.22 112 245.92 119 249.96 132.34 242.26"/><polygon class="cls-21" points="129 240.96 131.25 242.26 119 249.34 116.75 248.04 129 240.96"/><polygon class="cls-14" points="119.15 247.07 120.67 247.96 119 248.92 117.47 248.04 119.15 247.07"/><path class="cls-21" d="M109.11,245.92l9.89,5.71,16.23-9.37-9.89-5.71Zm9.89,5.29-9.17-5.29L125.34,237l9.16,5.29Z"/><polygon class="cls-22" points="114.19 245.92 125.83 239.2 125.49 239 113.85 245.72 114.19 245.92"/><polygon class="cls-22" points="120.32 242.79 126.19 239.4 126.52 239.6 120.65 242.99 120.32 242.79"/><polygon class="cls-22" points="119.71 243.94 126.88 239.81 127.22 240 120.05 244.14 119.71 243.94"/><polygon class="cls-22" points="120.41 244.34 127.57 240.21 127.91 240.4 120.74 244.54 120.41 244.34"/><path class="cls-17" d="M141.39,240.22a1.44,1.44,0,0,1-.25-.79V239c0-.42,0-.88,0-1.25a1.55,1.55,0,0,1,.16-.64,3.23,3.23,0,0,1,2.83-1.36,4,4,0,0,1,.61,0c1.26.11,2.7.71,2.75,2v1.68a1.45,1.45,0,0,1-.25.79,3.84,3.84,0,0,1,.7,2v2.64c0,2.15,0,4.36,0,6.16s-1.8,2.58-3.5,2.62h-.24c-1.68,0-3.41-.89-3.49-2.6v-2.42c0-.19,0-.38,0-.58v-3.37c0-.85,0-1.67,0-2.43A3.84,3.84,0,0,1,141.39,240.22Z"/><path class="cls-20" d="M148,249.85l0-7.66a1.79,1.79,0,0,1-1,1.47,5.65,5.65,0,0,1-5.11.05,1.83,1.83,0,0,1-1.09-1.5l0,7.66a1.82,1.82,0,0,0,1.1,1.49,5.65,5.65,0,0,0,5.11-.05A1.8,1.8,0,0,0,148,249.85Z"/><path class="cls-21" d="M141.39,249.86c0,.32.28.66.76.93a5,5,0,0,0,4.45,0c.45-.27.7-.6.7-.9v-2.09a1.27,1.27,0,0,1-.7.83,4.53,4.53,0,0,1-2.26.55,4.63,4.63,0,0,1-2.19-.5c-.48-.27-.76-.61-.76-.93Z"/><path class="cls-14" d="M142,248.92a3.25,3.25,0,0,0,.68.3v1.45a2,2,0,0,1-.36-.17c-.43-.24-.59-.49-.59-.64v-1.11A1.78,1.78,0,0,0,142,248.92Z"/><path class="cls-14" d="M146.26,236.27a4.32,4.32,0,0,0-4,0c-1.08.64-1.06,1.67,0,2.29a4.34,4.34,0,0,0,4,0C147.4,237.92,147.38,236.89,146.26,236.27Z"/><path class="cls-8" d="M141.13,237.75v1.68a1.59,1.59,0,0,0,1,1.31,5.05,5.05,0,0,0,3.81.27,3.82,3.82,0,0,0,.68-.31,2.5,2.5,0,0,0,.24-.16,1.44,1.44,0,0,0,.66-1.13v-1.68a1.36,1.36,0,0,1-.52,1,2.68,2.68,0,0,1-.37.26,3.48,3.48,0,0,1-.43.22,5,5,0,0,1-4.06-.17A1.62,1.62,0,0,1,141.13,237.75Z"/><path class="cls-14" d="M145.26,236.86a2.15,2.15,0,0,0-1.93,0,.6.6,0,0,0,0,1.13,2.17,2.17,0,0,0,1.94,0C145.82,237.67,145.8,237.17,145.26,236.86Z"/><path class="cls-14" d="M141.38,244.22v3.49c0,.32.28.66.76.93a4.63,4.63,0,0,0,2.19.5,4.53,4.53,0,0,0,2.26-.55,1.27,1.27,0,0,0,.7-.83l0-3.56a5.82,5.82,0,0,1-3,.75,5.92,5.92,0,0,1-2.83-.67Z"/><path class="cls-23" d="M146.79,245.34a6.63,6.63,0,0,1-2.48.46,6.78,6.78,0,0,1-2.43-.44V245a6.87,6.87,0,0,0,2.44.44,6.63,6.63,0,0,0,2.48-.46Z"/><path class="cls-23" d="M146.79,246.15a6.84,6.84,0,0,1-2.48.45,6.57,6.57,0,0,1-2.43-.44v-.35a6.66,6.66,0,0,0,2.44.44,6.84,6.84,0,0,0,2.48-.45Z"/><path class="cls-23" d="M144.31,247.06a6.63,6.63,0,0,0,2.48-.46V247a6.63,6.63,0,0,1-2.48.46,6.75,6.75,0,0,1-1.36-.14v-.35A6.75,6.75,0,0,0,144.31,247.06Z"/><path class="cls-24" d="M146.6,242.83l0,8.79a1.63,1.63,0,0,1-.37,1,1.91,1.91,0,0,0,1.17-1.65l0-8.8a3.23,3.23,0,0,0-.57-1.65,2.5,2.5,0,0,1-.24.16,3.82,3.82,0,0,1-.68.31l.1.14A3.18,3.18,0,0,1,146.6,242.83Z"/><path class="cls-17" d="M150.45,244.55a1.35,1.35,0,0,1-.26-.79v-1.68a1.45,1.45,0,0,1,.15-.63,3.21,3.21,0,0,1,2.84-1.37,3.83,3.83,0,0,1,.6,0c1.26.11,2.71.71,2.76,2v1.68a1.5,1.5,0,0,1-.24.8,3.67,3.67,0,0,1,.69,2c0,.82,0,1.71,0,2.64,0,2.15,0,4.36,0,6.17s-1.79,2.57-3.49,2.61h-.24c-1.68,0-3.42-.89-3.49-2.59v-4.41c0-.46,0-.93,0-1.4V249c0-.85,0-1.67,0-2.43A3.77,3.77,0,0,1,150.45,244.55Z"/><path class="cls-20" d="M157,254.18l0-7.66a1.8,1.8,0,0,1-1,1.47,5.65,5.65,0,0,1-5.11,0,1.82,1.82,0,0,1-1.1-1.5l0,7.66a1.82,1.82,0,0,0,1.09,1.49,5.61,5.61,0,0,0,5.11-.05A1.76,1.76,0,0,0,157,254.18Z"/><path class="cls-21" d="M150.44,254.19c0,.32.28.66.76.93a4.51,4.51,0,0,0,2.19.5,4.6,4.6,0,0,0,2.26-.54c.45-.27.71-.6.71-.9v-2.09a1.28,1.28,0,0,1-.7.84,5,5,0,0,1-4.45,0c-.48-.27-.75-.61-.76-.92Z"/><path class="cls-14" d="M151,253.26a4.63,4.63,0,0,0,.68.29V255a3.92,3.92,0,0,1-.36-.16c-.43-.25-.59-.5-.59-.65v-1.11Z"/><path class="cls-14" d="M155.32,240.6a4.34,4.34,0,0,0-4,0c-1.08.64-1,1.67.06,2.3a4.38,4.38,0,0,0,4,0C156.46,242.25,156.43,241.22,155.32,240.6Z"/><path class="cls-8" d="M150.19,242.08v1.68a1.61,1.61,0,0,0,1,1.31,5.06,5.06,0,0,0,3.81.27,3.62,3.62,0,0,0,.69-.31,1.88,1.88,0,0,0,.23-.16,1.39,1.39,0,0,0,.66-1.13v-1.68a1.38,1.38,0,0,1-.53,1,3,3,0,0,1-.37.27,4.3,4.3,0,0,1-.43.21,5,5,0,0,1-4.06-.17A1.59,1.59,0,0,1,150.19,242.08Z"/><path class="cls-14" d="M154.32,241.2a2.11,2.11,0,0,0-1.94,0c-.53.31-.51.81,0,1.12a2.15,2.15,0,0,0,1.93,0A.59.59,0,0,0,154.32,241.2Z"/><path class="cls-14" d="M150.43,248.55v3.5c0,.31.28.65.76.92a5,5,0,0,0,4.45,0,1.28,1.28,0,0,0,.7-.84v-3.56a6.21,6.21,0,0,1-5.8.08Z"/><path class="cls-23" d="M155.85,249.67a6.95,6.95,0,0,1-4.92,0v-.35a6.95,6.95,0,0,0,4.92,0Z"/><path class="cls-23" d="M155.85,250.48a7.1,7.1,0,0,1-4.92,0v-.36a6.64,6.64,0,0,0,2.43.44,6.89,6.89,0,0,0,2.49-.45Z"/><path class="cls-23" d="M153.36,251.39a6.69,6.69,0,0,0,2.49-.46v.35a6.83,6.83,0,0,1-3.84.32v-.35A6.65,6.65,0,0,0,153.36,251.39Z"/><path class="cls-24" d="M155.66,247.16l0,8.79a1.64,1.64,0,0,1-.38,1,1.93,1.93,0,0,0,1.18-1.65l0-8.8a3.16,3.16,0,0,0-.58-1.65,1.88,1.88,0,0,1-.23.16,3.62,3.62,0,0,1-.69.31l.1.14A3.21,3.21,0,0,1,155.66,247.16Z"/><path class="cls-25" d="M144.47,70.49c11-6.34,19.88-1.2,19.88,11.48,0,.24,0,.48,0,.72-.32,12.53-9.09,27.5-19.86,33.72s-19.56,1.38-19.88-10.78c0-.22,0-.46,0-.7C124.59,92.25,133.49,76.84,144.47,70.49Z"/><path class="cls-26" d="M128.76,107.38c0,.24,0,.48,0,.7.32,12.17,9.1,17,19.87,10.78s19.55-21.18,19.87-33.72c0-.24,0-.47,0-.72,0-12.68-8.89-17.82-19.88-11.48S128.76,94.7,128.76,107.38Zm3.76-2.17c0-10.28,7.22-22.78,16.12-27.92s16.12-1,16.12,9.3c0,.25,0,.48,0,.72-.33,10.14-7.42,22.18-16.11,27.2s-15.78,1.17-16.11-8.59C132.52,105.69,132.52,105.45,132.52,105.21Z"/><path class="cls-14" d="M148.64,77.29c8.9-5.14,16.12-1,16.12,9.31s-7.22,22.77-16.12,27.91-16.12,1-16.12-9.3S139.74,82.43,148.64,77.29Z"/><polygon class="cls-27" points="148.07 96.95 149.21 94.85 140.87 90.97 139.74 93.07 148.07 96.95"/><polygon class="cls-27" points="149.26 96.21 158.73 79.06 157.5 78.44 148.03 95.59 149.26 96.21"/><path class="cls-15" d="M146.74,97c0,1.21.85,1.7,1.9,1.09a4.17,4.17,0,0,0,1.9-3.28c0-1.21-.85-1.7-1.9-1.1A4.21,4.21,0,0,0,146.74,97Z"/><polygon class="cls-27" points="149.25 109.37 148.07 110.05 148.07 113.86 149.25 113.17 149.25 109.37"/><polygon class="cls-27" points="160.61 88.3 160.61 89.66 163.9 87.76 163.9 86.39 160.61 88.3"/><polygon class="cls-27" points="148.05 82.43 149.23 81.74 149.23 77.94 148.05 78.62 148.05 82.43"/><polygon class="cls-27" points="136.68 103.5 136.68 102.14 133.38 104.04 133.38 105.4 136.68 103.5"/><polygon class="cls-28" points="406.64 121.86 372.3 93.54 337.97 82.21 337.76 81.26 372.3 92.66 372.41 92.75 406.84 121.15 406.64 121.86"/><polygon class="cls-14" points="406.74 122.72 337.87 82.96 337.87 179.09 406.74 218.85 406.74 122.72"/><path class="cls-29" d="M352.45,184.37l1.67-14.09,1.9,16.15L388.16,205l1.9-13.95,1.67,16,10.61,6.13L397.85,170c0-2.58-1.86-5.8-4.32-7.66l-13.32-12.16-.86-13.85c3.81-.37,5.33-3.61,5.1-9.22-.43-9.7-8.21-16-14.64-19.76-10.15-5.89-11.73-.19-12,2-.08.65-.45,3.42-.45,3.42-.09.36-.44,2,.23,2.81,0,0,.54.59.44,1L357,121.38a2.4,2.4,0,0,0,1.2,2.17l.9.52s0,.79,0,2.13c0,.57,0,1.24,0,2l.07.6.5,3.84a4,4,0,0,0,2.1,2.64l2.5,1.1-.3,4.38-13.31-3.21c-2.46-1-4.32.09-4.32,2.67l-4.49,38Z"/><path class="cls-6" d="M373.34,183.09l-2.51-1.48c.07-5.59,0-11.85,0-17.9s-.07-12.35,0-18c0-3.14-.06-6.21-1.75-9.19a16.53,16.53,0,0,0-5.52-5.59,24.22,24.22,0,0,0-4.39-2.18l-.07-.6c0-.75,0-1.42,0-2a26.93,26.93,0,0,1,4.64,2.34,22.3,22.3,0,0,1,7.29,7.51c2.25,4,2.39,7.55,2.35,11.19-.07,5.58,0,11.84,0,17.9S373.41,177.49,373.34,183.09Z"/><path class="cls-30" d="M366.46,169.64c-1.94.54-3.88,1.7-6.42,2.07-1.43.21-3.48-1.81-3.77-3.72a34.1,34.1,0,0,1,.76-14.44,9.48,9.48,0,0,1,5.61-6.64l.9-.36c1.24-.49,3.32,1.53,3.4,3.31l.22,4.77a9.42,9.42,0,0,0,.38,2.19l1.47,5.11C370.15,165.88,369.1,168.89,366.46,169.64Z"/><path class="cls-30" d="M378.17,176.39c1.93,2.78,3.87,6.19,6.41,9.49,1.43,1.86,3.48,2.21,3.77.63.79-4.36.48-9.33-.76-15.31a39.62,39.62,0,0,0-5.6-13.11l-.9-1.41c-1.24-1.92-3.33-2.3-3.41-.62l-.21,4.52a5,5,0,0,1-.38,1.76l-1.48,3.4C374.47,168.38,375.52,172.6,378.17,176.39Z"/><path class="cls-31" d="M383.36,190.43c0,4-3.62,5.49-10.5,1.52s-12.81-8.18-13.5-11.39c-1-4.47,9,2.66,14-.88C377.57,176.69,383.36,186.4,383.36,190.43Z"/><polygon class="cls-31" points="408.35 120.44 336.26 78.82 336.26 82.8 408.35 124.42 408.35 120.44"/><path class="cls-32" d="M373.71,94.5c0,.77-.63,1-1.41.59a2.93,2.93,0,0,1-1.4-2.22c0-.78.63-1,1.4-.6A2.93,2.93,0,0,1,373.71,94.5Z"/><polygon class="cls-28" points="402.34 131.46 390.66 124.71 390.66 123.75 402.34 130.49 402.34 131.46"/><polygon class="cls-28" points="402.34 135.1 390.66 128.36 390.66 127.39 402.34 134.14 402.34 135.1"/><polygon class="cls-28" points="402.34 138.75 390.66 132 390.66 131.03 402.34 137.78 402.34 138.75"/><polygon class="cls-28" points="402.34 142.39 390.66 135.65 390.66 134.68 402.34 141.43 402.34 142.39"/><polygon class="cls-28" points="402.34 146.03 390.66 139.29 390.66 138.32 402.34 145.07 402.34 146.03"/><polygon class="cls-28" points="402.34 149.68 387.02 140.83 387.02 139.87 402.34 148.72 402.34 149.68"/><polygon class="cls-28" points="402.34 153.32 385.94 143.85 385.94 142.89 402.34 152.36 402.34 153.32"/><polygon class="cls-28" points="402.34 156.97 392.38 151.21 392.38 150.25 402.34 156 402.34 156.97"/><polygon class="cls-28" points="402.34 160.61 385.94 151.15 385.94 150.18 402.34 159.65 402.34 160.61"/><path class="cls-3" d="M57.89,215.36v-31.7l37.9-21.88v31.71S57.89,215.36,57.89,215.36Z"/><polygon class="cls-33" points="57.89 167.52 95.79 145.64 110.29 154.02 72.4 175.9 57.89 167.52"/><polygon class="cls-26" points="57.89 199.23 57.89 167.52 72.4 175.9 72.4 207.6 57.89 199.23"/><path class="cls-21" d="M72.4,207.6V175.9L110.29,154v31.71Z"/><polygon class="cls-14" points="94.43 188.37 94.43 182.59 99.43 179.71 99.43 172.58 94.43 175.47 94.43 169.7 88.26 173.26 88.26 179.03 83.26 181.92 83.26 189.04 88.26 186.16 88.26 191.93 94.43 188.37"/><polygon class="cls-34" points="225.28 395.22 275.65 424.3 328.35 393.87 277.99 364.79 225.28 395.22"/><polygon class="cls-35" points="19.14 397.92 69.51 427 122.21 396.57 71.85 367.49 19.14 397.92"/><path class="cls-36" d="M444.15,356.45v-17.7L477.64,358,473.76,80.18,290.57,0H178.34L4.38,82.43,0,350.81l66.32-38.3s-44.84,25.9-44.84,25.9l50.37,29.08,3.91-2.26,47.34,27.41a11.34,11.34,0,0,0,3.76,1.25l-4.65,2.68,50.37,29.08,52.7-30.43L178.11,368l8.56-4.95c2.31-1.33,3-3.23,2.17-4.93l38.78-22.4-41.49-23.95V301.51l43.32-25v12.21l-5.36,3.11,39.78,23-36.25,20.93L278,364.79l36.25-20.93,50.36,29.08-36.25,20.93L378.72,423l52.7-30.43-19.06-11,37.47-21.78ZM118.83,322a9.41,9.41,0,0,0-1.8.78l-8.63,5L74.47,308.15v-.35l28.63-16.53,15.73,9.11ZM178,307.05l-.72-.41-37.93,21.89-5.71-3.3V303.62a9.65,9.65,0,0,0,1.79-.77l17.65-10.19,24.2,14,.72-.42Zm49.34-68.66v9.77l2.14,1.24v26.51L179.6,247.13l-9.51,5.49s62.15-35.93,62.15-35.93l9.14,5.27-17.29,10v4.51Zm14.37,31.05v-13L252.92,263Zm190.22,79.94-13.25-7.65,13.25-7.65Zm0-17.44-8-4.62.2-.12,7.8,4.5Z"/><g class="cls-37"><path class="cls-2" d="M71.85,367.49l52.7-30.43L74.19,308,21.48,338.41Zm105.41-60.85L230,276.21,179.6,247.13l-52.71,30.43ZM69.51,427l52.7-30.43L71.85,367.49,19.14,397.92Zm105.41-60.86,52.7-30.43-50.36-29.07-52.71,30.42Zm105.41-60.86L333,274.86l-50.36-29.08L230,276.21ZM172.58,425.65l52.7-30.43-50.36-29.08-52.71,30.43ZM278,364.79l52.7-30.43-50.36-29.08-52.71,30.43Zm-2.34,59.51,52.7-30.43L278,364.79l-52.71,30.43Zm105.41-60.86L433.76,333,383.4,303.93l-52.71,30.43ZM378.72,423l52.7-30.43-50.36-29.08-52.71,30.43Z"/><path class="cls-3" d="M65.77,359.45l57.33,33.19a13.62,13.62,0,0,0,12.31,0L186.67,363c3.39-2,3.39-5.14,0-7.1l-55.25-32-2.08-1.2a13.56,13.56,0,0,0-12.31,0L74.49,347.31l-8.72,5C62.36,354.31,62.36,357.49,65.77,359.45Z"/><polygon class="cls-38" points="162.69 0 0 77.94 0 350.81 232.24 216.69 232.24 0 162.69 0"/><polygon class="cls-39" points="309.11 0 232.24 0 232.24 216.69 477.64 358.04 477.64 73.04 309.11 0"/><polygon class="cls-3" points="224.09 291.82 277.97 260.51 449.83 359.73 395.95 391.04 224.09 291.82"/><path class="cls-6" d="M229.45,243.1v47.31a3,3,0,0,0,1.79,2.5,9.62,9.62,0,0,0,8.65,0,3,3,0,0,0,1.8-2.5V243.1Z"/><path class="cls-6" d="M389.67,301.21v81.91a3,3,0,0,0,1.8,2.5,9.55,9.55,0,0,0,8.65,0,3,3,0,0,0,1.79-2.5V301.21Z"/><path class="cls-6" d="M431.91,297.14V358.6a3.06,3.06,0,0,0,1.79,2.5,9.57,9.57,0,0,0,8.66,0,3.06,3.06,0,0,0,1.79-2.5V297.14Z"/><polygon class="cls-7" points="279.66 205.97 227.32 236.39 227.31 248.16 394.26 344.55 446.6 314.14 446.61 302.36 279.66 205.97"/><g class="cls-1"><polygon points="449.83 299.92 449.82 304.44 395.94 335.75 395.95 331.23 449.83 299.92"/><polygon points="395.95 331.23 395.94 335.75 224.08 236.52 224.09 232.01 395.95 331.23"/><polygon class="cls-8" points="449.83 299.92 395.95 331.23 224.09 232.01 277.97 200.69 449.83 299.92"/></g><path class="cls-9" d="M127,230.83v94a2,2,0,0,1-1.19,1.66,6.38,6.38,0,0,1-5.77,0,2,2,0,0,1-1.19-1.66v-94Z"/><path class="cls-10" d="M120,229.17c-1.59.92-1.59,2.41,0,3.33a6.38,6.38,0,0,0,5.77,0c1.59-.92,1.59-2.41,0-3.33A6.38,6.38,0,0,0,120,229.17Z"/><path class="cls-11" d="M133.62,295.81v94a2,2,0,0,1-1.19,1.67,6.36,6.36,0,0,1-5.76,0,2,2,0,0,1-1.19-1.67v-94Z"/><path class="cls-10" d="M126.67,294.15c-1.59.91-1.59,2.4,0,3.32a6.36,6.36,0,0,0,5.76,0c1.59-.92,1.59-2.41,0-3.32A6.36,6.36,0,0,0,126.67,294.15Z"/><path class="cls-11" d="M74.47,261.34v94A2,2,0,0,1,73.28,357a6.36,6.36,0,0,1-5.76,0,2,2,0,0,1-1.2-1.67v-94Z"/><path class="cls-10" d="M67.52,259.68c-1.59.91-1.59,2.4,0,3.32a6.36,6.36,0,0,0,5.76,0c1.59-.92,1.59-2.41,0-3.32A6.36,6.36,0,0,0,67.52,259.68Z"/><path class="cls-11" d="M186.13,265.3v94a2,2,0,0,1-1.19,1.66,6.36,6.36,0,0,1-5.76,0,2,2,0,0,1-1.2-1.66v-94Z"/><path class="cls-10" d="M179.18,263.64c-1.6.92-1.6,2.41,0,3.33a6.36,6.36,0,0,0,5.76,0c1.59-.92,1.59-2.41,0-3.33A6.36,6.36,0,0,0,179.18,263.64Z"/><path class="cls-12" d="M65.63,262.66l.14-.1L117,233a13.62,13.62,0,0,1,12.31,0l55.56,32.15,4.33.65v3.93c0,1.29-.85,2.57-2.55,3.56l-51.26,29.59a13.62,13.62,0,0,1-12.31,0L65.77,269.67c-1.7-1-2.55-2.27-2.55-3.56v-3.93Z"/><path class="cls-13" d="M65.77,265.73l57.33,33.19a13.62,13.62,0,0,0,12.31,0l51.26-29.6c3.39-2,3.39-5.14,0-7.1l-55.25-32L129.34,229A13.62,13.62,0,0,0,117,229L74.49,253.59l-8.72,5C62.36,260.59,62.36,263.77,65.77,265.73Z"/><polygon class="cls-14" points="161.8 267 135.95 252.08 99.43 273.17 125.28 288.09 161.8 267"/><polygon class="cls-15" points="114.03 279.4 114.46 279.65 123.51 274.43 123.08 274.18 114.03 279.4"/><path class="cls-16" d="M121.11,276.83l9.55,5.51-5.49,3.17L115.62,280Zm8.69,5.51-8.69-5L116.48,280l8.69,5Z"/><polygon class="cls-17" points="109.22 269.93 118.77 275.44 113.28 278.61 103.73 273.09 109.22 269.93"/><path class="cls-16" d="M128.27,272.92l9.35,5.4-1.67,1-9.35-5.4Zm8.5,5.4-8.5-4.9-.82.47,8.5,4.9Z"/><polygon class="cls-15" points="112.52 268.33 133.51 280.45 133.94 280.2 112.94 268.08 112.52 268.33"/><polygon class="cls-15" points="121.92 262.9 142.92 275.02 143.34 274.77 122.35 262.65 121.92 262.9"/><polygon class="cls-15" points="130.87 257.73 151.86 269.85 152.29 269.61 131.3 257.49 130.87 257.73"/><polygon class="cls-16" points="121.97 276.58 131.09 281.85 131.51 281.6 122.39 276.34 121.97 276.58"/><polygon class="cls-16" points="114.7 267.07 125.28 273.17 125.7 272.92 115.13 266.82 114.7 267.07"/><polygon class="cls-16" points="115.99 266.32 126.56 272.43 126.99 272.18 116.42 266.08 115.99 266.32"/><polygon class="cls-16" points="117.27 265.58 138.26 277.7 138.69 277.46 117.7 265.34 117.27 265.58"/><polygon class="cls-16" points="118.55 264.84 139.54 276.96 139.97 276.72 118.98 264.6 118.55 264.84"/><polygon class="cls-16" points="119.83 264.1 140.83 276.22 141.26 275.98 120.26 263.86 119.83 264.1"/><polygon class="cls-16" points="135.92 268.75 144.84 273.9 145.27 273.66 136.35 268.51 135.92 268.75"/><polygon class="cls-16" points="137.21 268.01 146.13 273.16 146.56 272.92 137.63 267.76 137.21 268.01"/><polygon class="cls-16" points="138.49 267.27 147.41 272.42 147.84 272.18 138.92 267.02 138.49 267.27"/><polygon class="cls-16" points="144.66 263.71 153.58 268.86 154 268.62 145.08 263.46 144.66 263.71"/><polygon class="cls-16" points="145.94 262.97 154.86 268.12 155.29 267.88 146.37 262.72 145.94 262.97"/><polygon class="cls-16" points="147.22 262.23 156.14 267.38 156.57 267.13 147.65 261.98 147.22 262.23"/><polygon class="cls-16" points="127.7 259.56 148.69 271.68 149.12 271.44 128.13 259.31 127.7 259.56"/><polygon class="cls-16" points="128.98 258.82 149.97 270.94 150.4 270.69 129.41 258.57 128.98 258.82"/><polygon class="cls-16" points="122.96 276.01 131.1 280.7 131.53 280.46 123.39 275.76 122.96 276.01"/><polygon class="cls-16" points="110.98 270.24 119.35 275.07 119.78 274.82 111.41 269.99 110.98 270.24"/><polygon class="cls-16" points="111.98 269.66 120.35 274.5 120.78 274.25 112.41 269.42 111.98 269.66"/><path class="cls-16" d="M126.63,259.93l10.93,6.31-3,1.73-10.92-6.31Zm10.07,6.31-10.07-5.81-2.14,1.23,10.07,5.81Z"/><path class="cls-16" d="M135.36,254.89l5.68,3.28-3,1.73-5.68-3.28Zm4.82,3.28-4.82-2.78-2.13,1.23,4.82,2.78Z"/><path class="cls-16" d="M140.61,257.92l5.68,3.28-3,1.73-5.67-3.28Zm4.82,3.28-4.82-2.78-2.14,1.23,4.82,2.78Z"/><polygon class="cls-18" points="125.92 261.62 134.28 266.45 134.93 266.08 126.56 261.25 125.92 261.62"/><polygon class="cls-18" points="139.79 259.55 143.51 261.69 144.15 261.32 140.44 259.18 139.79 259.55"/><polygon class="cls-18" points="134.49 256.48 138.22 258.64 138.87 258.27 135.13 256.11 134.49 256.48"/><polygon class="cls-18" points="118.2 280.01 124.98 283.93 125.62 283.56 118.84 279.64 118.2 280.01"/><polygon class="cls-18" points="119.59 279.21 126.2 283.02 126.84 282.65 120.23 278.84 119.59 279.21"/><polygon class="cls-18" points="127.97 274.08 135.78 278.6 136.43 278.23 128.61 273.71 127.97 274.08"/><path class="cls-17" d="M109.35,236.21a.8.8,0,0,0-.78,0l-5.36,3.12a1.31,1.31,0,0,0-.32.26,1.25,1.25,0,0,0-.26.59.16.16,0,0,1-.1.05,1.08,1.08,0,0,0-1,.27l-2.38,2a.53.53,0,0,0-.11.67.55.55,0,0,0,.62.2l2.89-1.08a1.68,1.68,0,0,0,.25-.1,1.07,1.07,0,0,0,.5-.65c.06-.08.11-.05.17,0a1.15,1.15,0,0,0,.89-.07l5-2.93a2.7,2.7,0,0,0,.54-.34C110.43,237.62,110,236.55,109.35,236.21Z"/><path class="cls-14" d="M99.45,242.86s2.4-2,2.4-2a.87.87,0,0,1,.61-.26.78.78,0,0,1,.22,0,.37.37,0,0,0,.31-.12,1.43,1.43,0,0,1,.26-.58,1.18,1.18,0,0,1,.27-.22l5.36-3.12a.54.54,0,0,1,.27-.07.79.79,0,0,1,.32.08l.16.11a1.1,1.1,0,0,0-.37-.31.62.62,0,0,0-.31-.08.52.52,0,0,0-.27.07l-5.36,3.11a.89.89,0,0,0-.27.23.92.92,0,0,0-.22.48c-.1.17-.19.21-.28.22l-.29,0a.88.88,0,0,0-.61.25l-2.38,2a.32.32,0,0,0-.07.41.32.32,0,0,0,.17.13A.32.32,0,0,1,99.45,242.86Z"/><g class="cls-19"><path class="cls-14" d="M104.3,239.25c0-.48.33-.68.74-.45a1.65,1.65,0,0,1,.76,1.28c0,.48-.33.68-.74.45A1.65,1.65,0,0,1,104.3,239.25Z"/></g><g class="cls-19"><path class="cls-14" d="M109,236.88c0-.3.2-.42.45-.28a1,1,0,0,1,.47.79c0,.29-.2.42-.45.28A1,1,0,0,1,109,236.88Z"/></g><polygon class="cls-17" points="130.68 239.38 128.59 240.58 118.15 234.55 120.23 233.35 130.68 239.38"/><polygon class="cls-15" points="118.15 234.55 118.15 236 120.23 234.8 120.23 233.35 118.15 234.55"/><path class="cls-20" d="M119.43,234.07l3.07,1.14a1.16,1.16,0,0,1,.26.14,1.14,1.14,0,0,1,.37.51c0,.1.09.13.13.11a1.25,1.25,0,0,1,1,.1l5.36,3.12.08.05a1.06,1.06,0,0,1,.16,1.3l-.08.13a1.57,1.57,0,0,1-.24.32.92.92,0,0,1-1.11.25l-5.37-3.12a1.19,1.19,0,0,1-.57-.81c0-.06-.06-.08-.11-.09a1,1,0,0,1-.92-.19l-.1-.08L119,235A.51.51,0,0,1,119.43,234.07Z"/><path class="cls-14" d="M129.36,240.78l0-.09a.9.9,0,0,0-.08-1.09l-5.42-3.15a1,1,0,0,0-.51-.14.85.85,0,0,0-.31.06H123a.31.31,0,0,1-.25-.13,1.06,1.06,0,0,0-.35-.53l-.18-.11-3-1.12c-.11-.12,0-.23.13-.23l3.12,1.13a1.3,1.3,0,0,1,.21.12.84.84,0,0,1,.29.41c.12.21.21.26.31.26h.09a1,1,0,0,1,.33-.06,1.09,1.09,0,0,1,.51.14l5.36,3.11a.87.87,0,0,1,.16,1.08.75.75,0,0,1-.07.12,1.69,1.69,0,0,1-.22.29.84.84,0,0,1-.24.18A1.57,1.57,0,0,0,129.36,240.78Z"/><path class="cls-14" d="M129.88,240.12c0-.33-.23-.47-.51-.31a1.15,1.15,0,0,0-.52.88c0,.33.22.47.51.31A1.15,1.15,0,0,0,129.88,240.12Z"/><g class="cls-19"><path class="cls-14" d="M125.46,237.24c0-.48-.32-.68-.74-.45a1.62,1.62,0,0,0-.75,1.28c0,.48.32.68.73.45A1.65,1.65,0,0,0,125.46,237.24Z"/></g><polygon class="cls-7" points="128.59 240.58 128.59 242.03 118.15 236 118.15 234.55 128.59 240.58"/><polygon class="cls-15" points="128.59 240.58 128.59 242.03 130.68 240.83 130.68 239.38 128.59 240.58"/><polygon class="cls-17" points="128.59 240.58 126.51 241.78 116.06 235.75 118.15 234.55 128.59 240.58"/><polygon class="cls-15" points="116.06 235.75 116.06 237.21 118.15 236 118.15 234.55 116.06 235.75"/><path class="cls-20" d="M117.35,235.28l3.07,1.13a1,1,0,0,1,.26.15,1,1,0,0,1,.36.5c0,.1.09.13.14.12a1.22,1.22,0,0,1,1,.09l5.37,3.12.07.05a1.06,1.06,0,0,1,.16,1.3.69.69,0,0,1-.07.13,2,2,0,0,1-.24.32.92.92,0,0,1-1.12.25L121,239.33a1.23,1.23,0,0,1-.58-.81.1.1,0,0,0-.1-.09,1.09,1.09,0,0,1-.93-.2.36.36,0,0,1-.09-.08l-2.38-2A.51.51,0,0,1,117.35,235.28Z"/><path class="cls-14" d="M127.27,242a.28.28,0,0,0,0-.09c.19-.38.22-.87-.07-1.08l-5.42-3.16a1.07,1.07,0,0,0-.51-.13.89.89,0,0,0-.32,0l-.1,0a.33.33,0,0,1-.25-.13,1.12,1.12,0,0,0-.35-.54,1.18,1.18,0,0,0-.19-.11l-3-1.12c-.12-.12,0-.22.13-.22l3.12,1.13a.76.76,0,0,1,.2.12.86.86,0,0,1,.3.41c.12.21.21.25.3.25h.1a1,1,0,0,1,.32-.06,1,1,0,0,1,.51.14l5.36,3.11a.85.85,0,0,1,.16,1.08l-.06.13a1.6,1.6,0,0,1-.22.28,1.33,1.33,0,0,1-.24.19A1.24,1.24,0,0,0,127.27,242Z"/><path class="cls-14" d="M127.79,241.32c0-.32-.22-.46-.5-.3a1.11,1.11,0,0,0-.52.87c0,.33.22.47.5.31A1.1,1.1,0,0,0,127.79,241.32Z"/><g class="cls-19"><path class="cls-14" d="M123.37,238.44c0-.48-.32-.68-.73-.45a1.65,1.65,0,0,0-.76,1.28c0,.48.32.68.74.45A1.62,1.62,0,0,0,123.37,238.44Z"/></g><polygon class="cls-7" points="126.51 241.78 126.51 243.24 116.06 237.21 116.06 235.75 126.51 241.78"/><polygon class="cls-15" points="126.51 241.78 126.51 243.24 128.59 242.03 128.59 240.58 126.51 241.78"/><polygon class="cls-17" points="126.51 241.78 124.42 242.99 113.98 236.96 116.06 235.75 126.51 241.78"/><polygon class="cls-15" points="113.98 236.96 113.98 238.41 116.06 237.21 116.06 235.75 113.98 236.96"/><path class="cls-20" d="M115.26,236.48l3.07,1.13a1.12,1.12,0,0,1,.26.15,1.17,1.17,0,0,1,.37.5c.05.11.09.14.14.12a1.19,1.19,0,0,1,1,.1l5.36,3.11.08,0a1.06,1.06,0,0,1,.16,1.3.59.59,0,0,0-.07.14,1.36,1.36,0,0,1-.25.31.91.91,0,0,1-1.11.26l-5.36-3.12a1.2,1.2,0,0,1-.58-.81.11.11,0,0,0-.11-.09,1.07,1.07,0,0,1-.92-.19l-.09-.08-2.38-2A.51.51,0,0,1,115.26,236.48Z"/><path class="cls-14" d="M125.19,243.19a.93.93,0,0,0,0-.1.88.88,0,0,0-.08-1.08l-5.42-3.15a1,1,0,0,0-.51-.14,1.12,1.12,0,0,0-.31.05.2.2,0,0,1-.1,0,.35.35,0,0,1-.26-.13,1,1,0,0,0-.35-.53A.67.67,0,0,0,118,238l-3-1.13c-.11-.11,0-.22.13-.22l3.12,1.13a1.3,1.3,0,0,1,.21.12.93.93,0,0,1,.3.41c.11.21.21.26.3.26l.09,0a1,1,0,0,1,.33,0,1.07,1.07,0,0,1,.51.13l5.36,3.12a.86.86,0,0,1,.16,1.08l-.07.12a1.24,1.24,0,0,1-.22.28,1,1,0,0,1-.23.19A2.35,2.35,0,0,0,125.19,243.19Z"/><path class="cls-14" d="M125.71,242.53c0-.33-.22-.47-.51-.31a1.15,1.15,0,0,0-.52.88c0,.32.23.46.51.31A1.17,1.17,0,0,0,125.71,242.53Z"/><g class="cls-19"><path class="cls-14" d="M121.29,239.64c0-.47-.32-.68-.74-.45a1.64,1.64,0,0,0-.75,1.29c0,.47.32.68.73.45A1.65,1.65,0,0,0,121.29,239.64Z"/></g><polygon class="cls-7" points="124.42 242.99 124.42 244.44 113.98 238.41 113.98 236.96 124.42 242.99"/><polygon class="cls-15" points="124.42 242.99 124.42 244.44 126.51 243.24 126.51 241.78 124.42 242.99"/><polygon class="cls-17" points="124.42 242.99 122.34 244.19 111.89 238.16 113.98 236.96 124.42 242.99"/><polygon class="cls-15" points="111.89 238.16 111.89 239.62 113.98 238.41 113.98 236.96 111.89 238.16"/><path class="cls-20" d="M113.18,237.68l3.07,1.14a1.45,1.45,0,0,1,.26.14,1,1,0,0,1,.36.51c0,.1.1.13.14.11a1.22,1.22,0,0,1,1,.1l5.37,3.12.07,0a1,1,0,0,1,.16,1.3.69.69,0,0,1-.07.13,2,2,0,0,1-.24.32.92.92,0,0,1-1.11.25l-5.37-3.12a1.21,1.21,0,0,1-.58-.81.12.12,0,0,0-.1-.09,1.06,1.06,0,0,1-.93-.19l-.09-.08-2.37-2A.51.51,0,0,1,113.18,237.68Z"/><path class="cls-14" d="M123.1,244.39l.06-.09a.9.9,0,0,0-.08-1.09l-5.42-3.15a1.09,1.09,0,0,0-.51-.14.91.91,0,0,0-.32.06l-.1,0a.33.33,0,0,1-.25-.14,1.13,1.13,0,0,0-.35-.53,1.18,1.18,0,0,0-.19-.11l-3-1.12c-.12-.12,0-.23.13-.23l3.12,1.13.2.12a.86.86,0,0,1,.3.41c.12.21.21.26.31.26h.09a1,1,0,0,1,.32-.06,1,1,0,0,1,.51.14l5.36,3.11a.85.85,0,0,1,.16,1.08l-.06.12a1.38,1.38,0,0,1-.22.29,1.25,1.25,0,0,1-.24.18A.92.92,0,0,0,123.1,244.39Z"/><path class="cls-14" d="M123.62,243.73c0-.33-.22-.46-.5-.31a1.12,1.12,0,0,0-.52.88c0,.33.22.47.5.31A1.1,1.1,0,0,0,123.62,243.73Z"/><g class="cls-19"><path class="cls-14" d="M119.21,240.85c0-.48-.33-.68-.74-.45a1.65,1.65,0,0,0-.76,1.28c0,.48.33.68.74.45A1.65,1.65,0,0,0,119.21,240.85Z"/></g><polygon class="cls-7" points="122.34 244.19 122.34 245.64 111.89 239.62 111.89 238.16 122.34 244.19"/><polygon class="cls-15" points="122.34 244.19 122.34 245.64 124.42 244.44 124.42 242.99 122.34 244.19"/><polygon class="cls-17" points="122.34 244.19 120.25 245.4 109.81 239.37 111.89 238.16 122.34 244.19"/><polygon class="cls-15" points="109.81 239.37 109.81 240.82 111.89 239.62 111.89 238.16 109.81 239.37"/><path class="cls-20" d="M111.1,238.89l3.07,1.13a.78.78,0,0,1,.25.15,1,1,0,0,1,.37.5c0,.1.09.13.14.12a1.22,1.22,0,0,1,1,.09L121.3,244l.07.05a1.06,1.06,0,0,1,.16,1.3l-.07.13a1.65,1.65,0,0,1-.25.32.92.92,0,0,1-1.11.26l-5.36-3.12a1.2,1.2,0,0,1-.58-.81.11.11,0,0,0-.11-.09,1.08,1.08,0,0,1-.92-.2.36.36,0,0,1-.09-.08l-2.38-2A.51.51,0,0,1,111.1,238.89Z"/><path class="cls-14" d="M121,245.59a.9.9,0,0,0,0-.09c.19-.38.21-.87-.08-1.08l-5.42-3.16a1,1,0,0,0-.5-.13.86.86,0,0,0-.32.05l-.1,0a.35.35,0,0,1-.26-.13,1,1,0,0,0-.34-.54,1.18,1.18,0,0,0-.19-.11l-3-1.12c-.11-.12,0-.22.13-.22l3.12,1.13a1.3,1.3,0,0,1,.21.12.93.93,0,0,1,.3.41c.12.21.21.25.3.25H115a1,1,0,0,1,.33-.06,1.09,1.09,0,0,1,.51.14l5.36,3.11a.85.85,0,0,1,.16,1.08l-.07.13a1.21,1.21,0,0,1-.21.28,1.33,1.33,0,0,1-.24.19A1.24,1.24,0,0,0,121,245.59Z"/><path class="cls-14" d="M121.54,244.93c0-.32-.22-.46-.51-.3a1.1,1.1,0,0,0-.51.87c0,.33.22.47.5.31A1.15,1.15,0,0,0,121.54,244.93Z"/><g class="cls-19"><path class="cls-14" d="M117.12,242.05c0-.48-.32-.68-.73-.45a1.62,1.62,0,0,0-.76,1.28c0,.48.32.68.73.45A1.6,1.6,0,0,0,117.12,242.05Z"/></g><polygon class="cls-7" points="120.25 245.4 120.25 246.85 109.81 240.82 109.81 239.37 120.25 245.4"/><polygon class="cls-15" points="120.25 245.4 120.25 246.85 122.34 245.64 122.34 244.19 120.25 245.4"/><polygon class="cls-17" points="120.25 245.4 118.17 246.6 107.73 240.57 109.81 239.37 120.25 245.4"/><polygon class="cls-15" points="107.73 240.57 107.73 242.02 109.81 240.82 109.81 239.37 107.73 240.57"/><path class="cls-20" d="M109,240.09l3.07,1.13.26.15a1.07,1.07,0,0,1,.36.5c0,.11.1.14.14.12a1.21,1.21,0,0,1,1,.1l5.36,3.11.07.05a1,1,0,0,1,.16,1.3l-.07.14a1.3,1.3,0,0,1-.24.31.91.91,0,0,1-1.11.26l-5.37-3.12a1.23,1.23,0,0,1-.58-.81.12.12,0,0,0-.1-.09,1.06,1.06,0,0,1-.92-.19L111,243l-2.37-2A.51.51,0,0,1,109,240.09Z"/><path class="cls-14" d="M118.94,246.8l0-.1a.88.88,0,0,0-.08-1.08l-5.42-3.15a1.06,1.06,0,0,0-.51-.14,1.12,1.12,0,0,0-.31,0,.23.23,0,0,1-.11,0,.34.34,0,0,1-.25-.13,1,1,0,0,0-.35-.53.72.72,0,0,0-.19-.11l-3-1.13c-.11-.11,0-.22.13-.22l3.12,1.13a1.3,1.3,0,0,1,.21.12.84.84,0,0,1,.29.41c.12.21.21.26.31.26l.09,0a1,1,0,0,1,.33-.05,1,1,0,0,1,.5.13l5.36,3.12a.84.84,0,0,1,.16,1.08c0,.07-.05.09-.06.12a1.6,1.6,0,0,1-.22.28,1.33,1.33,0,0,1-.24.19A1.57,1.57,0,0,0,118.94,246.8Z"/><path class="cls-14" d="M119.45,246.14c0-.33-.22-.47-.5-.31a1.15,1.15,0,0,0-.52.88c0,.33.22.46.51.31A1.11,1.11,0,0,0,119.45,246.14Z"/><g class="cls-19"><path class="cls-14" d="M115,243.25c0-.47-.33-.68-.74-.45a1.67,1.67,0,0,0-.76,1.29c0,.47.33.68.74.45A1.67,1.67,0,0,0,115,243.25Z"/></g><polygon class="cls-7" points="118.17 246.6 118.17 248.05 107.73 242.02 107.73 240.57 118.17 246.6"/><polygon class="cls-15" points="118.17 246.6 118.17 248.05 120.25 246.85 120.25 245.4 118.17 246.6"/><polygon class="cls-17" points="118.17 246.6 116.08 247.8 105.64 241.77 107.73 240.57 118.17 246.6"/><polygon class="cls-15" points="105.64 241.77 105.64 243.22 107.73 242.02 107.73 240.57 105.64 241.77"/><path class="cls-20" d="M106.93,241.29l3.07,1.14a1,1,0,0,1,.25.14,1,1,0,0,1,.37.51c0,.1.09.13.14.11a1.22,1.22,0,0,1,1,.1l5.37,3.12.07.05a1.06,1.06,0,0,1,.16,1.3l-.07.13a2,2,0,0,1-.24.32.94.94,0,0,1-1.12.25l-5.36-3.12a1.17,1.17,0,0,1-.58-.81c0-.06-.06-.08-.11-.09a1,1,0,0,1-.92-.19l-.09-.08-2.38-2A.52.52,0,0,1,106.93,241.29Z"/><path class="cls-14" d="M116.85,248l.05-.09c.19-.39.22-.87-.08-1.09l-5.42-3.15a1,1,0,0,0-.5-.14.87.87,0,0,0-.32.06l-.1,0a.3.3,0,0,1-.25-.14,1.13,1.13,0,0,0-.35-.53,1.18,1.18,0,0,0-.19-.11l-3-1.12c-.11-.12,0-.23.13-.23l3.12,1.13a1,1,0,0,1,.21.13.83.83,0,0,1,.3.41c.12.2.21.25.3.25h.1a1,1,0,0,1,.32-.06,1.06,1.06,0,0,1,.51.14l5.36,3.11a.85.85,0,0,1,.16,1.08l-.07.13a1.21,1.21,0,0,1-.21.28,1.25,1.25,0,0,1-.24.18A1.18,1.18,0,0,0,116.85,248Z"/><path class="cls-14" d="M117.37,247.34c0-.33-.22-.46-.5-.31a1.1,1.1,0,0,0-.52.88c0,.33.22.47.5.31A1.12,1.12,0,0,0,117.37,247.34Z"/><g class="cls-19"><path class="cls-14" d="M113,244.46c0-.48-.32-.68-.73-.45a1.6,1.6,0,0,0-.76,1.28c0,.48.32.68.74.45A1.62,1.62,0,0,0,113,244.46Z"/></g><polygon class="cls-7" points="116.08 247.8 116.08 249.25 105.64 243.22 105.64 241.77 116.08 247.8"/><polygon class="cls-15" points="116.08 247.8 116.08 249.25 118.17 248.05 118.17 246.6 116.08 247.8"/><polygon class="cls-17" points="116.08 247.8 114 249 103.56 242.98 105.64 241.77 116.08 247.8"/><polygon class="cls-14" points="116.07 249.27 113.99 250.47 103.55 244.44 105.63 243.24 116.07 249.27"/><polygon class="cls-15" points="103.56 242.98 103.56 244.43 105.64 243.22 105.64 241.77 103.56 242.98"/><polygon class="cls-7" points="114 249 114 250.46 103.56 244.43 103.56 242.98 114 249"/><polygon class="cls-15" points="114 249 114 250.46 116.08 249.25 116.08 247.8 114 249"/><polygon class="cls-8" points="135.95 242.26 119 252.05 119 253.52 135.95 243.74 135.95 242.26"/><polygon class="cls-17" points="119 252.05 119 253.52 108.39 247.4 108.39 245.92 119 252.05"/><polygon class="cls-8" points="135.95 242.26 135.95 243.74 125.34 237.61 125.34 236.14 135.95 242.26"/><polygon class="cls-14" points="135.95 242.26 119 252.05 108.39 245.92 125.34 236.14 135.95 242.26"/><polygon class="cls-14" points="132.34 242.26 125.33 238.22 112 245.92 119 249.96 132.34 242.26"/><polygon class="cls-21" points="129 240.96 131.25 242.26 119 249.34 116.75 248.04 129 240.96"/><polygon class="cls-14" points="119.15 247.07 120.67 247.96 119 248.92 117.47 248.04 119.15 247.07"/><path class="cls-21" d="M109.11,245.92l9.89,5.71,16.23-9.37-9.89-5.71Zm9.89,5.29-9.17-5.29L125.34,237l9.16,5.29Z"/><polygon class="cls-22" points="114.19 245.92 125.83 239.2 125.49 239 113.85 245.72 114.19 245.92"/><polygon class="cls-22" points="120.32 242.79 126.19 239.4 126.52 239.6 120.65 242.99 120.32 242.79"/><polygon class="cls-22" points="119.71 243.94 126.88 239.81 127.22 240 120.05 244.14 119.71 243.94"/><polygon class="cls-22" points="120.41 244.34 127.57 240.21 127.91 240.4 120.74 244.54 120.41 244.34"/><path class="cls-17" d="M141.39,240.22a1.44,1.44,0,0,1-.25-.79V239c0-.42,0-.88,0-1.25a1.55,1.55,0,0,1,.16-.64,3.23,3.23,0,0,1,2.83-1.36,4,4,0,0,1,.61,0c1.26.11,2.7.71,2.75,2v1.68a1.45,1.45,0,0,1-.25.79,3.84,3.84,0,0,1,.7,2v2.64c0,2.15,0,4.36,0,6.16s-1.8,2.58-3.5,2.62h-.24c-1.68,0-3.41-.89-3.49-2.6v-2.42c0-.19,0-.38,0-.58v-3.37c0-.85,0-1.67,0-2.43A3.84,3.84,0,0,1,141.39,240.22Z"/><path class="cls-20" d="M148,249.85l0-7.66a1.79,1.79,0,0,1-1,1.47,5.65,5.65,0,0,1-5.11.05,1.83,1.83,0,0,1-1.09-1.5l0,7.66a1.82,1.82,0,0,0,1.1,1.49,5.65,5.65,0,0,0,5.11-.05A1.8,1.8,0,0,0,148,249.85Z"/><path class="cls-21" d="M141.39,249.86c0,.32.28.66.76.93a5,5,0,0,0,4.45,0c.45-.27.7-.6.7-.9v-2.09a1.27,1.27,0,0,1-.7.83,4.53,4.53,0,0,1-2.26.55,4.63,4.63,0,0,1-2.19-.5c-.48-.27-.76-.61-.76-.93Z"/><path class="cls-14" d="M142,248.92a3.25,3.25,0,0,0,.68.3v1.45a2,2,0,0,1-.36-.17c-.43-.24-.59-.49-.59-.64v-1.11A1.78,1.78,0,0,0,142,248.92Z"/><path class="cls-14" d="M146.26,236.27a4.32,4.32,0,0,0-4,0c-1.08.64-1.06,1.67,0,2.29a4.34,4.34,0,0,0,4,0C147.4,237.92,147.38,236.89,146.26,236.27Z"/><path class="cls-8" d="M141.13,237.75v1.68a1.59,1.59,0,0,0,1,1.31,5.05,5.05,0,0,0,3.81.27,3.82,3.82,0,0,0,.68-.31,2.5,2.5,0,0,0,.24-.16,1.44,1.44,0,0,0,.66-1.13v-1.68a1.36,1.36,0,0,1-.52,1,2.68,2.68,0,0,1-.37.26,3.48,3.48,0,0,1-.43.22,5,5,0,0,1-4.06-.17A1.62,1.62,0,0,1,141.13,237.75Z"/><path class="cls-14" d="M145.26,236.86a2.15,2.15,0,0,0-1.93,0,.6.6,0,0,0,0,1.13,2.17,2.17,0,0,0,1.94,0C145.82,237.67,145.8,237.17,145.26,236.86Z"/><path class="cls-14" d="M141.38,244.22v3.49c0,.32.28.66.76.93a4.63,4.63,0,0,0,2.19.5,4.53,4.53,0,0,0,2.26-.55,1.27,1.27,0,0,0,.7-.83l0-3.56a5.82,5.82,0,0,1-3,.75,5.92,5.92,0,0,1-2.83-.67Z"/><path class="cls-23" d="M146.79,245.34a6.63,6.63,0,0,1-2.48.46,6.78,6.78,0,0,1-2.43-.44V245a6.87,6.87,0,0,0,2.44.44,6.63,6.63,0,0,0,2.48-.46Z"/><path class="cls-23" d="M146.79,246.15a6.84,6.84,0,0,1-2.48.45,6.57,6.57,0,0,1-2.43-.44v-.35a6.66,6.66,0,0,0,2.44.44,6.84,6.84,0,0,0,2.48-.45Z"/><path class="cls-23" d="M144.31,247.06a6.63,6.63,0,0,0,2.48-.46V247a6.63,6.63,0,0,1-2.48.46,6.75,6.75,0,0,1-1.36-.14v-.35A6.75,6.75,0,0,0,144.31,247.06Z"/><path class="cls-24" d="M146.6,242.83l0,8.79a1.63,1.63,0,0,1-.37,1,1.91,1.91,0,0,0,1.17-1.65l0-8.8a3.23,3.23,0,0,0-.57-1.65,2.5,2.5,0,0,1-.24.16,3.82,3.82,0,0,1-.68.31l.1.14A3.18,3.18,0,0,1,146.6,242.83Z"/><path class="cls-17" d="M150.45,244.55a1.35,1.35,0,0,1-.26-.79v-1.68a1.45,1.45,0,0,1,.15-.63,3.21,3.21,0,0,1,2.84-1.37,3.83,3.83,0,0,1,.6,0c1.26.11,2.71.71,2.76,2v1.68a1.5,1.5,0,0,1-.24.8,3.67,3.67,0,0,1,.69,2c0,.82,0,1.71,0,2.64,0,2.15,0,4.36,0,6.17s-1.79,2.57-3.49,2.61h-.24c-1.68,0-3.42-.89-3.49-2.59v-4.41c0-.46,0-.93,0-1.4V249c0-.85,0-1.67,0-2.43A3.77,3.77,0,0,1,150.45,244.55Z"/><path class="cls-20" d="M157,254.18l0-7.66a1.8,1.8,0,0,1-1,1.47,5.65,5.65,0,0,1-5.11,0,1.82,1.82,0,0,1-1.1-1.5l0,7.66a1.82,1.82,0,0,0,1.09,1.49,5.61,5.61,0,0,0,5.11-.05A1.76,1.76,0,0,0,157,254.18Z"/><path class="cls-21" d="M150.44,254.19c0,.32.28.66.76.93a4.51,4.51,0,0,0,2.19.5,4.6,4.6,0,0,0,2.26-.54c.45-.27.71-.6.71-.9v-2.09a1.28,1.28,0,0,1-.7.84,5,5,0,0,1-4.45,0c-.48-.27-.75-.61-.76-.92Z"/><path class="cls-14" d="M151,253.26a4.63,4.63,0,0,0,.68.29V255a3.92,3.92,0,0,1-.36-.16c-.43-.25-.59-.5-.59-.65v-1.11Z"/><path class="cls-14" d="M155.32,240.6a4.34,4.34,0,0,0-4,0c-1.08.64-1,1.67.06,2.3a4.38,4.38,0,0,0,4,0C156.46,242.25,156.43,241.22,155.32,240.6Z"/><path class="cls-8" d="M150.19,242.08v1.68a1.61,1.61,0,0,0,1,1.31,5.06,5.06,0,0,0,3.81.27,3.62,3.62,0,0,0,.69-.31,1.88,1.88,0,0,0,.23-.16,1.39,1.39,0,0,0,.66-1.13v-1.68a1.38,1.38,0,0,1-.53,1,3,3,0,0,1-.37.27,4.3,4.3,0,0,1-.43.21,5,5,0,0,1-4.06-.17A1.59,1.59,0,0,1,150.19,242.08Z"/><path class="cls-14" d="M154.32,241.2a2.11,2.11,0,0,0-1.94,0c-.53.31-.51.81,0,1.12a2.15,2.15,0,0,0,1.93,0A.59.59,0,0,0,154.32,241.2Z"/><path class="cls-14" d="M150.43,248.55v3.5c0,.31.28.65.76.92a5,5,0,0,0,4.45,0,1.28,1.28,0,0,0,.7-.84v-3.56a6.21,6.21,0,0,1-5.8.08Z"/><path class="cls-23" d="M155.85,249.67a6.95,6.95,0,0,1-4.92,0v-.35a6.95,6.95,0,0,0,4.92,0Z"/><path class="cls-23" d="M155.85,250.48a7.1,7.1,0,0,1-4.92,0v-.36a6.64,6.64,0,0,0,2.43.44,6.89,6.89,0,0,0,2.49-.45Z"/><path class="cls-23" d="M153.36,251.39a6.69,6.69,0,0,0,2.49-.46v.35a6.83,6.83,0,0,1-3.84.32v-.35A6.65,6.65,0,0,0,153.36,251.39Z"/><path class="cls-24" d="M155.66,247.16l0,8.79a1.64,1.64,0,0,1-.38,1,1.93,1.93,0,0,0,1.18-1.65l0-8.8a3.16,3.16,0,0,0-.58-1.65,1.88,1.88,0,0,1-.23.16,3.62,3.62,0,0,1-.69.31l.1.14A3.21,3.21,0,0,1,155.66,247.16Z"/><path class="cls-25" d="M144.47,70.49c11-6.34,19.88-1.2,19.88,11.48,0,.24,0,.48,0,.72-.32,12.53-9.09,27.5-19.86,33.72s-19.56,1.38-19.88-10.78c0-.22,0-.46,0-.7C124.59,92.25,133.49,76.84,144.47,70.49Z"/><path class="cls-26" d="M128.76,107.38c0,.24,0,.48,0,.7.32,12.17,9.1,17,19.87,10.78s19.55-21.18,19.87-33.72c0-.24,0-.47,0-.72,0-12.68-8.89-17.82-19.88-11.48S128.76,94.7,128.76,107.38Zm3.76-2.17c0-10.28,7.22-22.78,16.12-27.92s16.12-1,16.12,9.3c0,.25,0,.48,0,.72-.33,10.14-7.42,22.18-16.11,27.2s-15.78,1.17-16.11-8.59C132.52,105.69,132.52,105.45,132.52,105.21Z"/><path class="cls-14" d="M148.64,77.29c8.9-5.14,16.12-1,16.12,9.31s-7.22,22.77-16.12,27.91-16.12,1-16.12-9.3S139.74,82.43,148.64,77.29Z"/><polygon class="cls-27" points="148.07 96.95 149.21 94.85 140.87 90.97 139.74 93.07 148.07 96.95"/><polygon class="cls-27" points="149.26 96.21 158.73 79.06 157.5 78.44 148.03 95.59 149.26 96.21"/><path class="cls-15" d="M146.74,97c0,1.21.85,1.7,1.9,1.09a4.17,4.17,0,0,0,1.9-3.28c0-1.21-.85-1.7-1.9-1.1A4.21,4.21,0,0,0,146.74,97Z"/><polygon class="cls-27" points="149.25 109.37 148.07 110.05 148.07 113.86 149.25 113.17 149.25 109.37"/><polygon class="cls-27" points="160.61 88.3 160.61 89.66 163.9 87.76 163.9 86.39 160.61 88.3"/><polygon class="cls-27" points="148.05 82.43 149.23 81.74 149.23 77.94 148.05 78.62 148.05 82.43"/><polygon class="cls-27" points="136.68 103.5 136.68 102.14 133.38 104.04 133.38 105.4 136.68 103.5"/><polygon class="cls-28" points="406.64 121.86 372.3 93.54 337.97 82.21 337.76 81.26 372.3 92.66 372.41 92.75 406.84 121.15 406.64 121.86"/><polygon class="cls-14" points="406.74 122.72 337.87 82.96 337.87 179.09 406.74 218.85 406.74 122.72"/><path class="cls-29" d="M352.45,184.37l1.67-14.09,1.9,16.15L388.16,205l1.9-13.95,1.67,16,10.61,6.13L397.85,170c0-2.58-1.86-5.8-4.32-7.66l-13.32-12.16-.86-13.85c3.81-.37,5.33-3.61,5.1-9.22-.43-9.7-8.21-16-14.64-19.76-10.15-5.89-11.73-.19-12,2-.08.65-.45,3.42-.45,3.42-.09.36-.44,2,.23,2.81,0,0,.54.59.44,1L357,121.38a2.4,2.4,0,0,0,1.2,2.17l.9.52s0,.79,0,2.13c0,.57,0,1.24,0,2l.07.6.5,3.84a4,4,0,0,0,2.1,2.64l2.5,1.1-.3,4.38-13.31-3.21c-2.46-1-4.32.09-4.32,2.67l-4.49,38Z"/><path class="cls-6" d="M373.34,183.09l-2.51-1.48c.07-5.59,0-11.85,0-17.9s-.07-12.35,0-18c0-3.14-.06-6.21-1.75-9.19a16.53,16.53,0,0,0-5.52-5.59,24.22,24.22,0,0,0-4.39-2.18l-.07-.6c0-.75,0-1.42,0-2a26.93,26.93,0,0,1,4.64,2.34,22.3,22.3,0,0,1,7.29,7.51c2.25,4,2.39,7.55,2.35,11.19-.07,5.58,0,11.84,0,17.9S373.41,177.49,373.34,183.09Z"/><path class="cls-30" d="M366.46,169.64c-1.94.54-3.88,1.7-6.42,2.07-1.43.21-3.48-1.81-3.77-3.72a34.1,34.1,0,0,1,.76-14.44,9.48,9.48,0,0,1,5.61-6.64l.9-.36c1.24-.49,3.32,1.53,3.4,3.31l.22,4.77a9.42,9.42,0,0,0,.38,2.19l1.47,5.11C370.15,165.88,369.1,168.89,366.46,169.64Z"/><path class="cls-30" d="M378.17,176.39c1.93,2.78,3.87,6.19,6.41,9.49,1.43,1.86,3.48,2.21,3.77.63.79-4.36.48-9.33-.76-15.31a39.62,39.62,0,0,0-5.6-13.11l-.9-1.41c-1.24-1.92-3.33-2.3-3.41-.62l-.21,4.52a5,5,0,0,1-.38,1.76l-1.48,3.4C374.47,168.38,375.52,172.6,378.17,176.39Z"/><path class="cls-31" d="M383.36,190.43c0,4-3.62,5.49-10.5,1.52s-12.81-8.18-13.5-11.39c-1-4.47,9,2.66,14-.88C377.57,176.69,383.36,186.4,383.36,190.43Z"/><polygon class="cls-31" points="408.35 120.44 336.26 78.82 336.26 82.8 408.35 124.42 408.35 120.44"/><path class="cls-32" d="M373.71,94.5c0,.77-.63,1-1.41.59a2.93,2.93,0,0,1-1.4-2.22c0-.78.63-1,1.4-.6A2.93,2.93,0,0,1,373.71,94.5Z"/><polygon class="cls-28" points="402.34 131.46 390.66 124.71 390.66 123.75 402.34 130.49 402.34 131.46"/><polygon class="cls-28" points="402.34 135.1 390.66 128.36 390.66 127.39 402.34 134.14 402.34 135.1"/><polygon class="cls-28" points="402.34 138.75 390.66 132 390.66 131.03 402.34 137.78 402.34 138.75"/><polygon class="cls-28" points="402.34 142.39 390.66 135.65 390.66 134.68 402.34 141.43 402.34 142.39"/><polygon class="cls-28" points="402.34 146.03 390.66 139.29 390.66 138.32 402.34 145.07 402.34 146.03"/><polygon class="cls-28" points="402.34 149.68 387.02 140.83 387.02 139.87 402.34 148.72 402.34 149.68"/><polygon class="cls-28" points="402.34 153.32 385.94 143.85 385.94 142.89 402.34 152.36 402.34 153.32"/><polygon class="cls-28" points="402.34 156.97 392.38 151.21 392.38 150.25 402.34 156 402.34 156.97"/><polygon class="cls-28" points="402.34 160.61 385.94 151.15 385.94 150.18 402.34 159.65 402.34 160.61"/><path class="cls-3" d="M57.89,215.36v-31.7l37.9-21.88v31.71S57.89,215.36,57.89,215.36Z"/><polygon class="cls-33" points="57.89 167.52 95.79 145.64 110.29 154.02 72.4 175.9 57.89 167.52"/><polygon class="cls-26" points="57.89 199.23 57.89 167.52 72.4 175.9 72.4 207.6 57.89 199.23"/><path class="cls-21" d="M72.4,207.6V175.9L110.29,154v31.71Z"/><polygon class="cls-14" points="94.43 188.37 94.43 182.59 99.43 179.71 99.43 172.58 94.43 175.47 94.43 169.7 88.26 173.26 88.26 179.03 83.26 181.92 83.26 189.04 88.26 186.16 88.26 191.93 94.43 188.37"/></g><ellipse class="cls-40" cx="233.54" cy="326.48" rx="45.62" ry="26.34"/><ellipse class="cls-40" cx="326.19" cy="378.96" rx="44.47" ry="25.67"/><path class="cls-41" d="M210.75,104.33c4.47,8.77,4.08,26.28,3.29,44.51.3,11-4.07,21.31-10.41,35.62l-4.4,20.71A48.39,48.39,0,0,1,195.82,185c1.94-14.53,3.28-24.53,5-37.64l-3.65-25.48C193.11,110.93,201.86,95.78,210.75,104.33Z"/><path d="M227.26,82.43c9.65,1.36,11.53,13,15.13,19.87C256.56,91.58,246.5,70.27,227.26,82.43Z"/><path class="cls-42" d="M231.72,304.14a30.5,30.5,0,0,1-8.6,11.77c-4.73,3.82-9.11,6.13-12.83,5.64-3.61-1.38-3.42-4.4-2-8.54,2.06-4.27,6.6-8.25,11.66-11.68,0,0,5.56-4.78,5.57-5S231.72,304.14,231.72,304.14Z"/><path class="cls-43" d="M205.54,255.36c3.87,11.4,11,26.18,19,41.91,0,0-9.89,8.61-5.83,11.71,6,4.61,13.74-9.9,13.74-9.9L221,259.1Z"/><path class="cls-42" d="M239.39,311.6l.2.58c1.74.07,3.93,5.82,3.16,10.24-2.48,6.58.09,11.74-.92,19.15-.61,4.58-2.17,8-5.8,10.21-6.05,3.62-10.5,4.27-11.21-.83-.68-3.51,0-6.88,1.59-12.26l2.89-14.23Z"/><path class="cls-41" d="M230.8,339.85c8.24,1,9.59-9.1,9.66-18.09,0-2.69-.07-5.27-.13-7.43-7.33-18.39,5.6-34.9-3.24-50.9l1.13-6.56,3-17.51L220,236.82l-3.78,19.42-1.33,11.56c2.34,15.45,12.68,32.79,14.8,49.28C230.16,324.7,225.87,339.25,230.8,339.85Z"/><path class="cls-44" d="M228.53,266.28c9.81,7.8,1.12,40.41,11.93,55.48,0-2.69-.07-5.27-.13-7.43-7.33-18.39,5.6-34.9-3.24-50.9l1.13-6.56C233.94,261,228.53,266.28,228.53,266.28Z"/><path class="cls-45" d="M199.1,207.32c-.66,22.67,5.9,25.79,5.32,41.6a14,14,0,0,0,.4,3.88c1.21,5.31,5,11.15,9.65,13.2a9.22,9.22,0,0,0,1.42.5c4.78.56,9.29.73,13.11-.13a13,13,0,0,0,9.75-7.86c-.09-16.79,12.59-28.64,14-50.89.6-9.48-1.66-18.45-7.7-25l-7.44-.12-36.92-.58Z"/><path class="cls-46" d="M241.7,230.09c-7.71,11.74-8.23,28.11-13.17,36.19l.47.09a13,13,0,0,0,9.75-7.86c-.09-16.79,12.59-28.64,14-50.89.6-9.48-1.66-18.45-7.7-25l-7.44-.12-20.52,11.08c11.24,2.75,21.16,7,25.15,18.26L240.7,219Z"/><path class="cls-42" d="M203.1,157a49.61,49.61,0,0,1-2.42,24.88c.9,5.49,3.94,9.57,11.18,10.91,15.58,2.91,28.66-.36,34.89-8.52-5.66-5.84-5.57-14.69-1.95-22.86a47.33,47.33,0,0,0,5.68-14.76,68.22,68.22,0,0,0,1.31-20.15c-7.48-7.59-15.47-14.66-24.28-16.59l-19.57-7.42c-5.82.83-10.5,11.32-8.94,19.17-.78,12.15-6.75,17.24-6.92,24.78C192,152.51,196,156.46,203.1,157Z"/><path class="cls-47" d="M200.68,181.88c.9,5.49,3.94,9.57,11.18,10.91,15.58,2.91,28.66-.36,34.89-8.52-5.66-5.84-5.57-14.69-1.95-22.86a47.33,47.33,0,0,0,5.68-14.76l-9.09-.26c-5.55,12-8,23.79-19.73,21.62-8.17-1.54-10.74-8.32-8.79-16.6-2.34,2.92-6.89,5.78-9.77,5.59A49.61,49.61,0,0,1,200.68,181.88Z"/><path class="cls-41" d="M236.35,113.38a30.88,30.88,0,0,1-4-13.86l-15.55,1.26.18,11.09C211.2,127.93,234.8,123.69,236.35,113.38Z"/><path class="cls-44" d="M220.06,104.48c1.31,7.65,6.6,18.94,12.43,16,4.17-2.13,3.48-6.74,2.47-13.34Z"/><path class="cls-41" d="M214.52,103.12c-8.69-14.62-4.24-27.34,7.63-30.11,13-3,21.71,6.34,21.72,17.72.38,12-2.66,20.54-7.21,21.27-7.5,1.22-13-2.13-15.15-7.16Z"/><path d="M213.78,107.55l3.22,4.32c.16-.74.5-8.05.79-10.05l1.27-3.25,3.42,1.46c7,.37,8.26-11.92,21.36-10.34C245,78,236.25,71.52,225.53,71.63c-13,1.09-17.16,8.67-16.69,18C209.12,95.42,211.11,103,213.78,107.55Z"/><path class="cls-41" d="M260.12,207l1.13,7,.31,6.3-1.38,4.82c-.23,1.13-1.44,1.56-1.15.2l-1.13,5.23c-.21,1.54-1.75,1.71-1.77.26l.54-6.8-3.35,9.57c-.53,1.43-2.2,1.72-2-.17l2-10.26-2.59,5.75-2.69,3.95c-1.13,1.37-2.83.85-2.2-.79l2.74-5.42s1-4.12,1.35-6a38.53,38.53,0,0,0-1.13-3.84l-6.91,4.47c-1.91.82-2.85-.82-1.21-2.25l6.72-7.16,4.4-3.27.37-.28.76-3.43,7-.13Z"/><path class="cls-41" d="M261.7,201.21c-.52,2.71-1.14,5.49-1.82,8.3l-8.14,2.55c-.42-9.18-.84-17.95-1.25-26.52-.24-5.07-.47-10-.7-15l-3.7-7.83s-7.86-16.63-7.86-16.63c-5.18-6.9,3.28-26.44,13.56-19.62,6,7.83,8.74,25.11,11.24,43.2a45.46,45.46,0,0,1,.76,5.07C264.51,182.55,263.63,191.5,261.7,201.21Z"/><path class="cls-46" d="M204.82,252.8c1.21,5.31,5,11.15,9.65,13.2a22.87,22.87,0,0,1-1.07-4.55c-1.46-11.09,3.14-20.9,1.17-27.29a36.62,36.62,0,0,1-3.21,11.22C209.7,248.81,207.47,250.42,204.82,252.8Z"/><path d="M224.85,93.49c-13.48-1.1-19.14,8.24-20.27,16.74-1.51,11.36,1,15.93,4.85,21.91,2.74,4.21,10.67,11.11,10.67,11.11,4.7-22-6.07-35-2.06-41.56,2.08-3.38,6.9-5.11,6.9-5.11Z"/><path class="cls-41" d="M222.59,104c.66-1.82.84-1.61.56-2.43-1.45-4.18-4.18-6.37-6.08-2.4-.5,1,0,2.24.4,3.29a7.27,7.27,0,0,0,1.2,2.12,2.46,2.46,0,0,0,2.17.87,2.36,2.36,0,0,0,1.21-.63A2.13,2.13,0,0,0,222.59,104Z"/><path class="cls-48" d="M301.13,155.05c2,.67.14,10.26-2.94,10.34l-4.06-5.2-5.07,1.37c-3.7.12-6.49-.21-8-1.17l-1.89-6.13,9.43-4.73Z"/><path class="cls-44" d="M301.13,155.05c2,.67.14,10.26-2.94,10.34l-4.06-5.2-5.07,1.37c-3.7.12-6.49-.21-8-1.17l-1.89-6.13v-4.73h9.43Z"/><path class="cls-48" d="M276,158.3a6.48,6.48,0,0,0,3.15,0l3-.68c1-.24,1.41-.85,1.36-1.41s-.72-1.18-1.79-1.12l-4.87,0-.94-.44a3.42,3.42,0,0,0-.75.71C274.54,156.29,274.74,157.4,276,158.3Z"/><path class="cls-48" d="M269,153.07l2.06-1.13,2.1-.34,1.85.69.76-1.64-.59-2.14-2-.54-3.53.6-2.32,2C265.46,152.14,266.37,154.45,269,153.07Z"/><g class="cls-1"><path class="cls-8" d="M257.41,143l-5.32-3-.14-.08.65.63,4.81,2.76Z"/></g><path class="cls-49" d="M257.17,143.45c-.08,0-.12-.06-.12-.16a.57.57,0,0,1,.27-.46c.18,0,.22,0,.22.12a.61.61,0,0,1-.27.47A.19.19,0,0,1,257.17,143.45Z"/><polygon class="cls-49" points="258.53 143.21 257.46 142.8 257.1 143.43 257.99 144.15 258.53 143.21"/><path class="cls-50" d="M258.08,144.19c-.1,0-.17-.09-.17-.25a.89.89,0,0,1,.4-.69.37.37,0,0,1,.16-.05c.11,0,.18.09.18.24a.91.91,0,0,1-.4.69A.32.32,0,0,1,258.08,144.19Z"/><path class="cls-51" d="M271.82,148.8a3.33,3.33,0,0,1-1.5,2.6,1,1,0,0,1-1.12.07l-11.47-6.67a1,1,0,0,1-.44-1,3.33,3.33,0,0,1,1.5-2.6,1.06,1.06,0,0,1,1.07-.1l1.87,1.09.23.13.61.36.24.13.61.36.24.14.6.35.24.14.61.35.24.14.6.35.25.14.6.35.24.14.6.35.24.14.61.35.25.15.58.34.26.15.59.34.26.15.95.55A1.06,1.06,0,0,1,271.82,148.8Z"/><path class="cls-51" d="M270.31,147.94c.83-.48,1.51-.09,1.51.86a3.33,3.33,0,0,1-1.5,2.6c-.83.47-1.5.09-1.51-.86A3.31,3.31,0,0,1,270.31,147.94Z"/><path class="cls-52" d="M263.89,148a.54.54,0,0,1-.31-.09l-5.68-3.29a.83.83,0,0,1-.32-.77,3.11,3.11,0,0,1,1.38-2.39,1.19,1.19,0,0,1,.56-.17.53.53,0,0,1,.28.07l5.71,3.31a.84.84,0,0,1,.32.76,3.12,3.12,0,0,1-1.38,2.4,1.19,1.19,0,0,1-.56.17Z"/><path class="cls-53" d="M263.89,148c-.37,0-.6-.31-.6-.83a3.08,3.08,0,0,1,1.38-2.39,1.11,1.11,0,0,1,.56-.18c.37,0,.6.31.6.83a3.12,3.12,0,0,1-1.38,2.4A1.19,1.19,0,0,1,263.89,148Z"/><path class="cls-52" d="M258.18,144.7c-.38,0-.6-.31-.6-.84a3.11,3.11,0,0,1,1.38-2.39,1.19,1.19,0,0,1,.56-.17c.37,0,.6.31.6.83a3.1,3.1,0,0,1-1.38,2.39A1.11,1.11,0,0,1,258.18,144.7Z"/><path class="cls-54" d="M258.18,144c-.06,0-.1,0-.1-.13a.45.45,0,0,1,.22-.36c.14,0,.17,0,.17.1a.48.48,0,0,1-.21.37Z"/><path class="cls-14" d="M265,148.65a.54.54,0,0,1-.31-.09l-1.08-.6a.84.84,0,0,1-.32-.76,3.12,3.12,0,0,1,1.38-2.4,1.19,1.19,0,0,1,.56-.17.53.53,0,0,1,.28.07l1.1.62a.85.85,0,0,1,.33.77,3.1,3.1,0,0,1-1.38,2.39,1.19,1.19,0,0,1-.56.17Z"/><path class="cls-55" d="M265,148.66c-.38,0-.6-.32-.6-.84a3.1,3.1,0,0,1,1.38-2.39,1.19,1.19,0,0,1,.56-.17c.37,0,.6.31.6.83a3.1,3.1,0,0,1-1.38,2.39A1.11,1.11,0,0,1,265,148.66Z"/><path class="cls-8" d="M269.21,146.57a1.16,1.16,0,0,0-.9.18.81.81,0,0,1,.64-.33Z"/><path class="cls-8" d="M268.36,146.08a1,1,0,0,0-.66.06.47.47,0,0,1,.41-.21Z"/><path class="cls-8" d="M267.52,145.59a1.2,1.2,0,0,0-.9.18.82.82,0,0,1,.65-.33Z"/><path class="cls-8" d="M266.66,145.09a1.08,1.08,0,0,0-.65.07.49.49,0,0,1,.41-.21Z"/><path class="cls-8" d="M265.82,144.6a1.25,1.25,0,0,0-.88.18.8.8,0,0,1,.64-.32Z"/><path class="cls-8" d="M265,144.11a1.12,1.12,0,0,0-.66.07.47.47,0,0,1,.41-.21Z"/><path class="cls-8" d="M264.13,143.62a1.25,1.25,0,0,0-.88.18.83.83,0,0,1,.64-.32Z"/><path class="cls-8" d="M263.29,143.13a1,1,0,0,0-.65.07.45.45,0,0,1,.41-.21Z"/><path class="cls-8" d="M262.44,142.63a1.29,1.29,0,0,0-.87.19.8.8,0,0,1,.63-.32Z"/><path class="cls-8" d="M261.59,142.14a1.14,1.14,0,0,0-.64.08.45.45,0,0,1,.41-.21Z"/><path class="cls-8" d="M260.75,141.65a1.29,1.29,0,0,0-.87.19.81.81,0,0,1,.63-.32Z"/><path class="cls-17" d="M269.07,148.23l-.78.71-.11.1-2.6-1.53a.28.28,0,0,1-.12-.26.87.87,0,0,1,.41-.7.26.26,0,0,1,.29,0Z"/><path class="cls-48" d="M267,147.07a2.48,2.48,0,0,0,1,.1l2.81-.42,3,.37,2.91,1.6V149l-1.59-.53-.17,3.78,3,1.12,1.4.51,16.35-.49,5.65,7.67c.57-.48,2.78-3.11.73-5.59-.48,0-4.5-4.44-4.5-4.44L292.3,148l-12.39-3-5.16-1.47-4.74-.27-2.74,1.4C266,145.45,265.9,146.7,267,147.07Z"/><path class="cls-48" d="M282.34,158c1.64-.46,2.35,1.06.89,2L281,161.1H279.1c-1.39-.39-1.09-1.5-.52-2.41l.83-.83,1.41-.34.33.77Z"/><path class="cls-44" d="M269,153.07l2.06-1.13,2.1-.34,1.85.69,3,1.12,9-2.94-7-1.82-6-2.34-4.13-.16L267,147a1.23,1.23,0,0,0,1,.22l2.81-.42,3,.37,2.91,1.6V149l-1.59-.53-2-.54-3.53.6-2.32,2C265.46,152.14,266.37,154.45,269,153.07Z"/><path class="cls-44" d="M275.16,155.39l.28.4,1.87.8,6.2-.38c-.09-.66-.72-1.18-1.79-1.12l-4.87,0-.94-.44A3.42,3.42,0,0,0,275.16,155.39Z"/><path class="cls-51" d="M270.34,153.48a1.49,1.49,0,0,0,.35-.27,2.41,2.41,0,0,0,.37-.46,2.32,2.32,0,0,0,.16-.31l.09-.22.06-.22.22-1,.22-1,0-.14.13-.58a2.76,2.76,0,0,0,.06-.57,1.73,1.73,0,0,0,0-.33.85.85,0,0,0,0-.17l-.59-2.07a.67.67,0,0,0-.07-.17,3,3,0,0,0-.56-.41.72.72,0,0,0-.75.07,2.38,2.38,0,0,0-1,1.48l-.21,1,0,.14-.23,1,0,.14-.09.44a2.36,2.36,0,0,0-.07.58,1.55,1.55,0,0,0,.07.5L269,153a.65.65,0,0,0,.28.38l.33.19a.63.63,0,0,0,.36.08A2.57,2.57,0,0,0,270.34,153.48Z"/><path class="cls-56" d="M268.66,150.6a1.85,1.85,0,0,0,.06.5l.6,2.07c.13.44.54.59,1,.31a2.41,2.41,0,0,0,1-1.48l.59-2.76a2.22,2.22,0,0,0,.07-.57,1.51,1.51,0,0,0-.07-.5l-.59-2.07c-.13-.44-.54-.59-1-.31a2.43,2.43,0,0,0-1,1.49l-.6,2.75A2.83,2.83,0,0,0,268.66,150.6Z"/><path class="cls-51" d="M271.59,148.8a2.48,2.48,0,0,1-.16.82,3.5,3.5,0,0,1-.57,1,2.34,2.34,0,0,1-.65.58,1.14,1.14,0,0,1-.56.18c-.38,0-.6-.31-.6-.84a2.43,2.43,0,0,1,.18-.88,3.17,3.17,0,0,1,.59-1,2.33,2.33,0,0,1,.61-.53A1.19,1.19,0,0,1,271,148C271.36,148,271.59,148.28,271.59,148.8Z"/><path class="cls-17" d="M277.71,153.5a.88.88,0,0,1-.41.7.25.25,0,0,1-.31,0l-5.74-3.37-.39-.23-1.63-1a3.17,3.17,0,0,1,.59-1l1.61,1,.71.41,5.45,3.21A.27.27,0,0,1,277.71,153.5Z"/><path class="cls-51" d="M276.65,155.43a.57.57,0,0,1-.32-.09l-.36-.19a.86.86,0,0,1-.32-.77A3.1,3.1,0,0,1,277,152a1.19,1.19,0,0,1,.56-.17.64.64,0,0,1,.28.06l.39.22a.82.82,0,0,1,.32.76,3.09,3.09,0,0,1-1.38,2.4,1.19,1.19,0,0,1-.55.17Z"/><path class="cls-56" d="M276.64,155.43c-.37,0-.6-.31-.6-.83a3.08,3.08,0,0,1,1.38-2.39A1.14,1.14,0,0,1,278,152c.38,0,.6.31.6.83a3.09,3.09,0,0,1-1.38,2.4A1.19,1.19,0,0,1,276.64,155.43Z"/><path class="cls-48" d="M296.92,152.42c-1.08,1.51-5.12,3-8.79,1.81l-4.55.94-4.4.58c-3.41.4-3.68-2.41-1-3.18l4.45-1.2,1.92-1.42.25-1.62h5.36Z"/><path class="cls-17" d="M352.42,179.85c-8,8.41-33.21,6-38.46,5.27-9-7.18-11.92-10.45-19.94-22.67-1.68-6.34,2.83-10.5,7-8.9,8.27,5.22,12.06,7.09,16.89,11.09,12.21-3.8,19.41-5,26.92-6.76C353.23,163.62,360.57,171.23,352.42,179.85Z"/><path class="cls-57" d="M289.4,383c0-4.68,3.61-6.48,9-7.06,4.69,0,11,2.09,19.26,4l9.44,5.16a21,21,0,0,1,.68,13.11c-2.65,2.3-6,3.71-9.12,2.88L308,396.57l-.77-1.53C298.82,394.12,289.39,390.28,289.4,383Z"/><path class="cls-57" d="M323.83,364.19c0-3.83,3.43-4.49,8.54-4.88,9.24,0,9.63,4.62,18.13,4.42l8.36,5.08a25,25,0,0,1,.36,14.05c-2.53,2.2-6.39,2.69-9.3,2.26l-8.58-5.05-.73-1.56C332.55,377.32,323.83,371.33,323.83,364.19Z"/><path class="cls-58" d="M359.44,369.21c-8.17,8.12-20.94.57-21.1-8-.55-13.25-1.28-26.1-2.55-38.05a237.82,237.82,0,0,0-4.19-26.62s-.52-1.9-1.28-4.94c-1.79-7.19-5-20.72-6.4-30.68a107.48,107.48,0,0,1-.62-14.39l30.78-12.89c-.7.32.39,7.58.29,10.23,0,.52-.05.86-.16.94.91,17.07,4,33.57.73,48.32,2.79,7.63,4.45,16.84,5.26,27C361.4,335,360.82,352,359.44,369.21Z"/><path class="cls-45" d="M354.6,239.88a19.08,19.08,0,0,1-.23,4,5.26,5.26,0,0,1-.16.94c-2.47,11.32-14.8,16-23.16,19.41,0,10,.06,18.79-.73,27.38a98,98,0,0,1-3.17,18.11A78.25,78.25,0,0,1,330,323.83c2.11,17.33.47,39-2.6,61.46-5,5.47-12.13,5.55-16.6,2.29a10.15,10.15,0,0,1-3.54-4.55,9.55,9.55,0,0,1-.57-2.37,10.94,10.94,0,0,1,.05-3L304.28,327l-.68-13.84s-.21-1-.55-2.71c-1.25-6.17-4.21-21.75-5.12-32.87-.81-10,1.45-29.14,2.83-39.5l.24-1.66.52-3.62.15-1.12.06-.36,0-.26a65.56,65.56,0,0,0,8.25,1.61c15.56,1.95,30-2.47,37.24-10.25a18.4,18.4,0,0,0,3.14-4.45c.29.75.52,1.53.79,2.31.13.45.28.89.39,1.33a72.22,72.22,0,0,1,2.49,12.07C354.34,235.69,354.53,237.77,354.6,239.88Z"/><path class="cls-14" d="M361.21,302.36a66.39,66.39,0,0,1-9,4.79c-1.62.7-7.11-34.74-8.8-34.14s.44,37.18-1.3,37.65a72.21,72.21,0,0,1-32,1.56A51.24,51.24,0,0,1,299.18,309c-1.25-6.3-.5-19.1-1.1-29.41l-.15-2a89.09,89.09,0,0,1,0-11.45c0-.65.05-1.32.11-2s.1-1.5.15-2.29c0-.15,0-.31,0-.46.1-1.18.18-2.32.29-3.49.2-2.32.44-4.63.67-6.9.11-1,.24-2,.34-3,.34-2.94.68-5.7,1-8.09.08-.63.16-1.2.23-1.75.6-4.27,1-7,1-7l45.49-8.64,8.32-19.23.37-.84v.18c-.86,15.38.31,33,2.08,56.53C359,271.65,360.12,285.91,361.21,302.36Z"/><path class="cls-14" d="M360.85,166.63c-.52,6.45-1.3,12.88-2.19,18.94a1.23,1.23,0,0,0,0,.26c-.94,6.27-2,12.18-3.05,17.31-.78,3.9-1.58,7.36-2.31,10.22,0,.11-.06.18-.08.26-.76,2.87-1.43,5.13-2,6.61a50.4,50.4,0,0,1-3.28,4.19c-10.8,12.47-24,14.05-38.34,9.53a71.87,71.87,0,0,1-7.75-2.94c-3-11.61-2.11-27.72-2.65-43.36a143.68,143.68,0,0,0-1.41-16.89c15.15-13.32,28.57-19.23,48.19-23.94C355.64,146.82,360.8,155.75,360.85,166.63Z"/><path class="cls-48" d="M315.37,146.91l-.17,11.74c13.08,4.57,26.33-3.63,24.44-8.73l-5-9.68Z"/><path class="cls-46" d="M310.81,387.58a10.15,10.15,0,0,1-3.54-4.55,9.55,9.55,0,0,1-.57-2.37,10.94,10.94,0,0,1,.05-3L304.28,327l-.68-13.84s-.21-1-.55-2.71a48,48,0,0,0,7,1.82l.78,3C306.75,334.91,308,360.39,310.81,387.58Z"/><path class="cls-59" d="M320.58,230.75c-8.67-2.09-13.39-29.61-5.38-48l-16,4.93c.54,15.64-.35,31.74,2.59,43.33a10.77,10.77,0,0,0,2.32.62,12.1,12.1,0,0,1-2.31-.6s-.42,2.75-1,7c-.05.55-.13,1.15-.23,1.75-.31,2.39-.65,5.15-1,8.09-.1,1-.23,2-.34,3-.23,2.27-.47,4.58-.67,6.9-.11,1.17-.19,2.31-.29,3.49,0,.15,0,.31,0,.46,0,.79-.1,1.54-.15,2.29s-.08,1.38-.11,2a89.09,89.09,0,0,0,0,11.45l.15,2c1,13.72,1.1,29.41,1.1,29.41A51.24,51.24,0,0,0,310,312.22c-5.55-21.47-7.76-43.59-1.1-60.14C308.86,245.19,314,233.21,320.58,230.75Z"/><path class="cls-48" d="M310,146.94c3.81,4.34,9.55,3.76,15.4,2.21,8.55-4,14.7-9.8,13.86-20.92.68-8.08-3-16.54-16.75-16.1-8.76.28-16.22,3.47-16.75,12.83C305.76,125,305.3,142.63,310,146.94Z"/><path d="M339.34,133.44a46,46,0,0,1-1.43,7.11,10.89,10.89,0,0,1-1.38,3.06c-3,4.27-12.71,7.87-19.25,3.15l-1.95-5.5s-3.8-3.28-4.2-3.4.28-7.41.28-7.41c-2.84-2.09-4.91-4.56-5.61-7.79-.91-7.33,5.85-13.67,16.71-13.2s16.11,7.4,17.15,14.53A57.43,57.43,0,0,1,339.34,133.44Z"/><path class="cls-48" d="M312.31,138.92c-1.05-1.18.57-3.9,1.75-4.28,1.64-.53,2.54,1.84,2.71,3.14a6,6,0,0,1-1,4.54c-1.12,1.65-2.87,0-3.42-1.31C312,140.06,313,139.66,312.31,138.92Z"/><path class="cls-60" d="M249.47,169.92l.32.66c.16,3.4.52,11,.66,14.22l6.31,4.57,4.94,11.84c1.73-8.71,2.77-15.45,2.43-22.62Z"/><path class="cls-48" d="M258.6,186.92l-8.25-3.69-3.14-3.82c-2.6-3.64-2.21-4.59-2.53-9.3l-.08-4.72,1.47-2.66,3.3,7,4,.85-.84-6.31c-.32-4,1.66-4.72,2.48-2,.26,3.17,1.53,5.09,2.65,8.76l4,5.06,4.68,5.39L260,189.88Z"/><path class="cls-14" d="M312.66,189.24c-6.74,9.42-21.58,22.82-31.6,20.77-9.94-5.89-14.59-11.87-23-21.42a9.15,9.15,0,0,1-.63-2.16c-.86-5,2.84-8.72,6.66-7.83,10.44,3.67,11.09,5.25,16.94,7.54,8.49-5.85,13.93-14.86,21.13-17.64C311.25,173.05,319.58,179.59,312.66,189.24Z"/><path class="cls-51" d="M337.6,146c-2.33,5.39-12.79,9.63-23.19,8.67L312,160.31c13.08,4.57,30.54-1.81,29.57-12Z"/><path class="cls-59" d="M312.66,189.24c-6.74,9.42-21.58,22.82-31.6,20.77-9.94-5.89-14.59-11.87-23-21.42a9.15,9.15,0,0,1-.63-2.16l.08-.86c7.1,8.89,14.69,16.21,23.52,19.6C289.46,206,301,197.7,312.66,189.24Z"/><path class="cls-61" d="M241.08,102.69a1.36,1.36,0,0,1-1.39-.61c-.55-.73-1.73.14-1.73.14a3.82,3.82,0,0,1-1.78.79c-.88-.05-1.85-.15-2.94-.32l-.12,0a62.26,62.26,0,0,1-9-2.21l-2.06-1.19a5.2,5.2,0,0,1,.37.76l1.9,1.11c.27,1.09.44,3.19-1.9,3.9l-.37-.29-.47.38.07.15,0,.06,0,.06h0c.54,1.13,4.16,7.82,13.87,6.85,0,0,6.27,0,7.49-10.54A4.19,4.19,0,0,1,241.08,102.69Z"/><path class="cls-62" d="M222.11,104.75l.37.29.47-.17A14.32,14.32,0,0,0,238.77,111a7.12,7.12,0,0,1-4.94,1.32c-3.28-.18-9-.59-12.19-7.22"/><path class="cls-61" d="M316.65,140.09l.07-.35Z"/><path class="cls-61" d="M316.56,140.64c0-.17.06-.37.09-.55C316.63,140.23,316.6,140.41,316.56,140.64Z"/><path class="cls-61" d="M316.72,139.74c0-.06,0-.07,0,0Z"/><path class="cls-61" d="M314.54,143.42a7.89,7.89,0,0,1-3.08-4.63l.63-.26a2,2,0,0,1,0-1.25,33.51,33.51,0,0,1-5.53.4s.66,6.1,2.92,8.67,2.91,2.55,2.91,2.55,3.63-5,4.14-7.91C316.5,141,315.83,142.91,314.54,143.42Z"/><path class="cls-61" d="M316.5,141l.06-.35Z"/><path class="cls-62" d="M316.65,140.09l.07-.35Z"/><path class="cls-62" d="M316.65,140.09v.09h0Z"/><path class="cls-62" d="M310.16,147.12c1.69,1.79,2.2,1.78,2.2,1.78a37.47,37.47,0,0,0,3.5-5.92A28.12,28.12,0,0,1,310.16,147.12Z"/><path class="cls-62" d="M316.64,140.18h0l-.08.46C316.59,140.46,316.62,140.31,316.64,140.18Z"/><path class="cls-62" d="M316.5,141l.06-.35Z"/></g></g></g></svg>