<?xml version="1.0" encoding="utf-8"?>
<!-- Generator: Adobe Illustrator 25.1.0, SVG Export Plug-In . SVG Version: 6.00 Build 0)  -->
<svg version="1.1" id="Capa_1" xmlns="http://www.w3.org/2000/svg" xmlns:xlink="http://www.w3.org/1999/xlink" x="0px" y="0px"
	 viewBox="0 0 512 512" style="enable-background:new 0 0 512 512;" xml:space="preserve">
<style type="text/css">
	.st0{fill:#CE3E67;}
	.st1{fill:#EF476F;}
	.st2{fill:#2A9D8F;}
	.st3{fill:#154C44;}
	.st4{fill:#206B60;}
</style>
<g id="Flat">
	<path class="st0" d="M83.5,202.2l22.6-22.6l56.6,56.6l-22.6,22.6L83.5,202.2z"/>
	<path class="st0" d="M253.2,371.9l22.6-22.6l56.6,56.6l-22.6,22.6L253.2,371.9z"/>
	<path class="st0" d="M83.5,405.8l56.6-56.6l22.6,22.6l-56.6,56.6L83.5,405.8z"/>
	<circle class="st1" cx="207.2" cy="303.2" r="104"/>
	<g>
		<path class="st0" d="M192,392h32v72h-32V392z"/>
		<ellipse class="st0" cx="208" cy="464" rx="32" ry="24"/>
		<path class="st0" d="M192,144h32v80h-32V144z"/>
		<ellipse class="st0" cx="208" cy="144" rx="32" ry="24"/>
		
			<ellipse transform="matrix(0.7071 -0.7071 0.7071 0.7071 -200.9194 349.1936)" class="st0" cx="321.1" cy="417.1" rx="32" ry="24"/>
		<ellipse transform="matrix(0.7071 -0.7071 0.7071 0.7071 -107.1794 122.958)" class="st0" cx="94.8" cy="190.9" rx="32" ry="24"/>
		<path class="st0" d="M288,288h80v32h-80V288z"/>
		<ellipse class="st0" cx="368" cy="304" rx="24" ry="32"/>
		<path class="st0" d="M48,288h80v32H48V288z"/>
		<ellipse class="st0" cx="48" cy="304" rx="24" ry="32"/>
		
			<ellipse transform="matrix(0.7071 -0.7071 0.7071 0.7071 -267.1672 189.2058)" class="st0" cx="94.8" cy="417.1" rx="24" ry="32"/>
		<circle class="st0" cx="176" cy="272" r="16"/>
		<ellipse class="st0" cx="208" cy="344" rx="40" ry="16"/>
	</g>
	<path class="st2" d="M264,200l120-120l48,48l-120,120L264,200z"/>
	<path class="st2" d="M391.9,88.1l40-40l32,32l-40,40L391.9,88.1z"/>
	<path class="st3" d="M208,312c-4.4,0-8-3.6-8-8c0-2.1,0.8-4.2,2.3-5.7l56-56c3.2-3.1,8.2-3,11.3,0.2c3,3.1,3,8,0,11.1l-56,56
		C212.2,311.2,210.1,312,208,312L208,312z"/>
	<path class="st4" d="M272,256l-16-16l16-32l32,32L272,256z"/>
	<path class="st4" d="M440,144c-2.1,0-4.2-0.8-5.7-2.3l-64-64c-3.1-3.2-3-8.2,0.2-11.3c3.1-3,8-3,11.1,0l64,64
		c3.1,3.1,3.1,8.2,0,11.3C444.2,143.2,442.1,144,440,144z"/>
	<path class="st4" d="M303.3,193.5c-1.5,1.5-3.6,2.3-5.7,2.3c-2.1,0-4.2-0.9-5.7-2.3c0,0-10.4-10.5-10.6-10.8l11.2-11.2
		c0.3,0.2,10.8,10.6,10.8,10.6C306.4,185.3,306.4,190.4,303.3,193.5z"/>
	<path class="st4" d="M326.5,170.3c-3.1,3.1-8.2,3.1-11.3,0c0,0-10.5-10.5-10.7-10.8l11.2-11.2c0.3,0.2,10.8,10.6,10.8,10.6
		C329.6,162.1,329.6,167.2,326.5,170.3z"/>
	<path class="st4" d="M349.7,147.1c-3.1,3.1-8.2,3.1-11.3,0c0,0-10.5-10.5-10.7-10.8l11.2-11.2c0.3,0.2,10.8,10.6,10.8,10.6
		C352.8,138.9,352.8,144,349.7,147.1z"/>
	<path class="st4" d="M372.9,123.8c-3,3.1-7.9,3.2-11.1,0.2c-0.1-0.1-0.1-0.1-0.2-0.2c0,0-10.4-10.5-10.6-10.8l11.1-11.1
		c0.3,0.2,10.8,10.6,10.8,10.6C376,115.7,376,120.7,372.9,123.8L372.9,123.8z"/>
	<path class="st4" d="M480,104c-2.1,0-4.2-0.8-5.7-2.3l-64-64c-3.1-3.2-3-8.2,0.2-11.3c3.1-3,8-3,11.1,0l64,64
		c3.1,3.1,3.1,8.2,0,11.3C484.2,103.2,482.1,104,480,104z"/>
</g>
</svg>
